<mxfile host="app.diagrams.net" modified="2024-06-04T12:04:51.279Z" agent="Mozilla/5.0 (Windows NT 10.0; Win64; x64) AppleWebKit/537.36 (KHTML, like Gecko) Chrome/121.0.0.0 Safari/537.36" etag="p2JncpTkJOFKIS_M2Vew" version="24.4.13" type="device">
  <diagram name="Página-1" id="6fkCdUxQR3Zf_s6z7InT">
    <mxGraphModel dx="1434" dy="1941" grid="1" gridSize="10" guides="1" tooltips="1" connect="1" arrows="1" fold="1" page="1" pageScale="1" pageWidth="827" pageHeight="1169" math="0" shadow="0">
      <root>
        <mxCell id="0" />
        <mxCell id="1" parent="0" />
        <mxCell id="GukLXgy1mVPKZHK0rCK0-15" style="edgeStyle=orthogonalEdgeStyle;rounded=0;orthogonalLoop=1;jettySize=auto;html=1;exitX=0.5;exitY=1;exitDx=0;exitDy=0;" parent="1" source="GukLXgy1mVPKZHK0rCK0-1" target="GukLXgy1mVPKZHK0rCK0-2" edge="1">
          <mxGeometry relative="1" as="geometry" />
        </mxCell>
        <mxCell id="GukLXgy1mVPKZHK0rCK0-1" value="INÍCIO" style="ellipse;whiteSpace=wrap;html=1;fillColor=#e1d5e7;strokeColor=#9673a6;" parent="1" vertex="1">
          <mxGeometry x="60" y="-740" width="120" height="80" as="geometry" />
        </mxCell>
        <mxCell id="GukLXgy1mVPKZHK0rCK0-16" style="edgeStyle=orthogonalEdgeStyle;rounded=0;orthogonalLoop=1;jettySize=auto;html=1;exitX=0.5;exitY=1;exitDx=0;exitDy=0;" parent="1" source="GukLXgy1mVPKZHK0rCK0-2" target="GukLXgy1mVPKZHK0rCK0-3" edge="1">
          <mxGeometry relative="1" as="geometry" />
        </mxCell>
        <mxCell id="GukLXgy1mVPKZHK0rCK0-2" value="ABRIR A TELA INICIAL&amp;nbsp;" style="rounded=0;whiteSpace=wrap;html=1;fillColor=#fad7ac;strokeColor=#b46504;" parent="1" vertex="1">
          <mxGeometry x="60" y="-614" width="120" height="60" as="geometry" />
        </mxCell>
        <mxCell id="GukLXgy1mVPKZHK0rCK0-17" style="edgeStyle=orthogonalEdgeStyle;rounded=0;orthogonalLoop=1;jettySize=auto;html=1;exitX=0.5;exitY=1;exitDx=0;exitDy=0;" parent="1" source="GukLXgy1mVPKZHK0rCK0-3" target="GukLXgy1mVPKZHK0rCK0-6" edge="1">
          <mxGeometry relative="1" as="geometry" />
        </mxCell>
        <mxCell id="GukLXgy1mVPKZHK0rCK0-3" value="CLICAR NO ÍCONE LEITURA" style="rounded=0;whiteSpace=wrap;html=1;fillColor=#fad7ac;strokeColor=#b46504;" parent="1" vertex="1">
          <mxGeometry x="60" y="-530" width="120" height="60" as="geometry" />
        </mxCell>
        <mxCell id="GukLXgy1mVPKZHK0rCK0-18" style="edgeStyle=orthogonalEdgeStyle;rounded=0;orthogonalLoop=1;jettySize=auto;html=1;exitX=0.5;exitY=1;exitDx=0;exitDy=0;" parent="1" source="GukLXgy1mVPKZHK0rCK0-6" target="GukLXgy1mVPKZHK0rCK0-7" edge="1">
          <mxGeometry relative="1" as="geometry" />
        </mxCell>
        <mxCell id="GukLXgy1mVPKZHK0rCK0-6" value="SELECIONAR CLIENTES" style="rounded=0;whiteSpace=wrap;html=1;fillColor=#fad7ac;strokeColor=#b46504;" parent="1" vertex="1">
          <mxGeometry x="60" y="-440" width="120" height="60" as="geometry" />
        </mxCell>
        <mxCell id="GukLXgy1mVPKZHK0rCK0-19" style="edgeStyle=orthogonalEdgeStyle;rounded=0;orthogonalLoop=1;jettySize=auto;html=1;exitX=0.5;exitY=1;exitDx=0;exitDy=0;" parent="1" source="GukLXgy1mVPKZHK0rCK0-7" target="GukLXgy1mVPKZHK0rCK0-10" edge="1">
          <mxGeometry relative="1" as="geometry" />
        </mxCell>
        <mxCell id="GukLXgy1mVPKZHK0rCK0-7" value="VISUALIZAR LISTA DE CLIENTES&amp;nbsp;" style="rounded=0;whiteSpace=wrap;html=1;fillColor=#fad7ac;strokeColor=#b46504;" parent="1" vertex="1">
          <mxGeometry x="60" y="-350" width="120" height="60" as="geometry" />
        </mxCell>
        <mxCell id="GukLXgy1mVPKZHK0rCK0-20" style="edgeStyle=orthogonalEdgeStyle;rounded=0;orthogonalLoop=1;jettySize=auto;html=1;exitX=0.5;exitY=1;exitDx=0;exitDy=0;exitPerimeter=0;" parent="1" source="GukLXgy1mVPKZHK0rCK0-10" target="GukLXgy1mVPKZHK0rCK0-11" edge="1">
          <mxGeometry relative="1" as="geometry" />
        </mxCell>
        <mxCell id="GukLXgy1mVPKZHK0rCK0-34" value="SIM" style="edgeLabel;html=1;align=center;verticalAlign=middle;resizable=0;points=[];" parent="GukLXgy1mVPKZHK0rCK0-20" vertex="1" connectable="0">
          <mxGeometry x="-0.28" relative="1" as="geometry">
            <mxPoint as="offset" />
          </mxGeometry>
        </mxCell>
        <mxCell id="GukLXgy1mVPKZHK0rCK0-21" style="edgeStyle=orthogonalEdgeStyle;rounded=0;orthogonalLoop=1;jettySize=auto;html=1;exitX=1;exitY=0.5;exitDx=0;exitDy=0;exitPerimeter=0;" parent="1" source="GukLXgy1mVPKZHK0rCK0-10" target="GukLXgy1mVPKZHK0rCK0-12" edge="1">
          <mxGeometry relative="1" as="geometry" />
        </mxCell>
        <mxCell id="GukLXgy1mVPKZHK0rCK0-29" value="" style="edgeStyle=orthogonalEdgeStyle;rounded=0;orthogonalLoop=1;jettySize=auto;html=1;" parent="1" source="GukLXgy1mVPKZHK0rCK0-10" target="GukLXgy1mVPKZHK0rCK0-12" edge="1">
          <mxGeometry relative="1" as="geometry" />
        </mxCell>
        <mxCell id="GukLXgy1mVPKZHK0rCK0-30" value="NÃO" style="edgeLabel;html=1;align=center;verticalAlign=middle;resizable=0;points=[];" parent="GukLXgy1mVPKZHK0rCK0-29" vertex="1" connectable="0">
          <mxGeometry x="-0.2235" y="1" relative="1" as="geometry">
            <mxPoint as="offset" />
          </mxGeometry>
        </mxCell>
        <mxCell id="GukLXgy1mVPKZHK0rCK0-10" value="CLIENTE APARECEU&lt;div&gt;&amp;nbsp;NA TELA&amp;nbsp;&lt;/div&gt;" style="strokeWidth=2;html=1;shape=mxgraph.flowchart.decision;whiteSpace=wrap;fillColor=#b0e3e6;strokeColor=#0e8088;" parent="1" vertex="1">
          <mxGeometry x="42.5" y="-270" width="155" height="90" as="geometry" />
        </mxCell>
        <mxCell id="GukLXgy1mVPKZHK0rCK0-27" style="edgeStyle=orthogonalEdgeStyle;rounded=0;orthogonalLoop=1;jettySize=auto;html=1;exitX=0.5;exitY=1;exitDx=0;exitDy=0;" parent="1" source="GukLXgy1mVPKZHK0rCK0-11" target="GukLXgy1mVPKZHK0rCK0-26" edge="1">
          <mxGeometry relative="1" as="geometry" />
        </mxCell>
        <mxCell id="GukLXgy1mVPKZHK0rCK0-35" value="SIM" style="edgeLabel;html=1;align=center;verticalAlign=middle;resizable=0;points=[];" parent="GukLXgy1mVPKZHK0rCK0-27" vertex="1" connectable="0">
          <mxGeometry x="-0.24" relative="1" as="geometry">
            <mxPoint as="offset" />
          </mxGeometry>
        </mxCell>
        <mxCell id="GukLXgy1mVPKZHK0rCK0-11" value="CLICAR NO OLHO VISUALIZAR DO CLIENTE DESEJADO" style="rounded=0;whiteSpace=wrap;html=1;fillColor=#fad7ac;strokeColor=#b46504;" parent="1" vertex="1">
          <mxGeometry x="60" y="-130" width="120" height="60" as="geometry" />
        </mxCell>
        <mxCell id="GukLXgy1mVPKZHK0rCK0-22" style="edgeStyle=orthogonalEdgeStyle;rounded=0;orthogonalLoop=1;jettySize=auto;html=1;exitX=1;exitY=0.5;exitDx=0;exitDy=0;" parent="1" source="GukLXgy1mVPKZHK0rCK0-12" target="GukLXgy1mVPKZHK0rCK0-13" edge="1">
          <mxGeometry relative="1" as="geometry" />
        </mxCell>
        <mxCell id="GukLXgy1mVPKZHK0rCK0-12" value="PESQUISAR CLIENTE QUE DESEJA" style="rounded=0;whiteSpace=wrap;html=1;fillColor=#fad7ac;strokeColor=#b46504;" parent="1" vertex="1">
          <mxGeometry x="240" y="-255" width="120" height="60" as="geometry" />
        </mxCell>
        <mxCell id="GukLXgy1mVPKZHK0rCK0-32" style="edgeStyle=orthogonalEdgeStyle;rounded=0;orthogonalLoop=1;jettySize=auto;html=1;exitX=0.5;exitY=0;exitDx=0;exitDy=0;exitPerimeter=0;entryX=0.5;entryY=1;entryDx=0;entryDy=0;" parent="1" source="GukLXgy1mVPKZHK0rCK0-13" target="GukLXgy1mVPKZHK0rCK0-14" edge="1">
          <mxGeometry relative="1" as="geometry" />
        </mxCell>
        <mxCell id="GukLXgy1mVPKZHK0rCK0-33" value="NÃO" style="edgeLabel;html=1;align=center;verticalAlign=middle;resizable=0;points=[];" parent="GukLXgy1mVPKZHK0rCK0-32" vertex="1" connectable="0">
          <mxGeometry x="-0.25" y="1" relative="1" as="geometry">
            <mxPoint x="1" as="offset" />
          </mxGeometry>
        </mxCell>
        <mxCell id="GukLXgy1mVPKZHK0rCK0-13" value="FOI ENCONTRADO&amp;nbsp;" style="strokeWidth=2;html=1;shape=mxgraph.flowchart.decision;whiteSpace=wrap;fillColor=#b0e3e6;strokeColor=#0e8088;" parent="1" vertex="1">
          <mxGeometry x="390" y="-270" width="155" height="90" as="geometry" />
        </mxCell>
        <mxCell id="GukLXgy1mVPKZHK0rCK0-97" style="edgeStyle=orthogonalEdgeStyle;rounded=0;orthogonalLoop=1;jettySize=auto;html=1;exitX=1;exitY=0.5;exitDx=0;exitDy=0;entryX=1;entryY=0.5;entryDx=0;entryDy=0;" parent="1" source="GukLXgy1mVPKZHK0rCK0-14" target="GukLXgy1mVPKZHK0rCK0-26" edge="1">
          <mxGeometry relative="1" as="geometry">
            <Array as="points">
              <mxPoint x="620" y="-340" />
              <mxPoint x="620" y="20" />
            </Array>
          </mxGeometry>
        </mxCell>
        <mxCell id="GukLXgy1mVPKZHK0rCK0-14" value="IR PARA TELA DE CADASTRO CLIENTE&amp;nbsp;" style="rounded=0;whiteSpace=wrap;html=1;fillColor=#fad7ac;strokeColor=#b46504;" parent="1" vertex="1">
          <mxGeometry x="407.5" y="-370" width="122.5" height="60" as="geometry" />
        </mxCell>
        <mxCell id="GukLXgy1mVPKZHK0rCK0-24" style="edgeStyle=orthogonalEdgeStyle;rounded=0;orthogonalLoop=1;jettySize=auto;html=1;exitX=1;exitY=0.5;exitDx=0;exitDy=0;exitPerimeter=0;entryX=1;entryY=0.65;entryDx=0;entryDy=0;entryPerimeter=0;" parent="1" source="GukLXgy1mVPKZHK0rCK0-13" target="GukLXgy1mVPKZHK0rCK0-11" edge="1">
          <mxGeometry relative="1" as="geometry" />
        </mxCell>
        <mxCell id="GukLXgy1mVPKZHK0rCK0-36" value="SIM" style="edgeLabel;html=1;align=center;verticalAlign=middle;resizable=0;points=[];" parent="GukLXgy1mVPKZHK0rCK0-24" vertex="1" connectable="0">
          <mxGeometry x="-0.8553" y="-3" relative="1" as="geometry">
            <mxPoint as="offset" />
          </mxGeometry>
        </mxCell>
        <mxCell id="GukLXgy1mVPKZHK0rCK0-26" value="FIM" style="ellipse;whiteSpace=wrap;html=1;fillColor=#e1d5e7;strokeColor=#9673a6;" parent="1" vertex="1">
          <mxGeometry x="60" y="-20" width="120" height="80" as="geometry" />
        </mxCell>
        <mxCell id="GukLXgy1mVPKZHK0rCK0-79" style="edgeStyle=orthogonalEdgeStyle;rounded=0;orthogonalLoop=1;jettySize=auto;html=1;exitX=0.5;exitY=1;exitDx=0;exitDy=0;entryX=0.5;entryY=0;entryDx=0;entryDy=0;" parent="1" source="GukLXgy1mVPKZHK0rCK0-66" target="GukLXgy1mVPKZHK0rCK0-70" edge="1">
          <mxGeometry relative="1" as="geometry" />
        </mxCell>
        <mxCell id="GukLXgy1mVPKZHK0rCK0-66" value="INÍCIO" style="ellipse;whiteSpace=wrap;html=1;fillColor=#d0cee2;strokeColor=#56517e;" parent="1" vertex="1">
          <mxGeometry x="780" y="-720" width="120" height="80" as="geometry" />
        </mxCell>
        <mxCell id="GukLXgy1mVPKZHK0rCK0-87" style="edgeStyle=orthogonalEdgeStyle;rounded=0;orthogonalLoop=1;jettySize=auto;html=1;exitX=0.5;exitY=1;exitDx=0;exitDy=0;exitPerimeter=0;" parent="1" source="GukLXgy1mVPKZHK0rCK0-67" target="GukLXgy1mVPKZHK0rCK0-78" edge="1">
          <mxGeometry relative="1" as="geometry" />
        </mxCell>
        <mxCell id="GukLXgy1mVPKZHK0rCK0-93" value="NÃO" style="edgeLabel;html=1;align=center;verticalAlign=middle;resizable=0;points=[];" parent="GukLXgy1mVPKZHK0rCK0-87" vertex="1" connectable="0">
          <mxGeometry x="-0.6" y="3" relative="1" as="geometry">
            <mxPoint as="offset" />
          </mxGeometry>
        </mxCell>
        <mxCell id="GukLXgy1mVPKZHK0rCK0-94" style="edgeStyle=orthogonalEdgeStyle;rounded=0;orthogonalLoop=1;jettySize=auto;html=1;exitX=1;exitY=0.5;exitDx=0;exitDy=0;exitPerimeter=0;entryX=0;entryY=0.5;entryDx=0;entryDy=0;" parent="1" source="GukLXgy1mVPKZHK0rCK0-67" target="GukLXgy1mVPKZHK0rCK0-68" edge="1">
          <mxGeometry relative="1" as="geometry" />
        </mxCell>
        <mxCell id="GukLXgy1mVPKZHK0rCK0-95" value="SIM" style="edgeLabel;html=1;align=center;verticalAlign=middle;resizable=0;points=[];" parent="GukLXgy1mVPKZHK0rCK0-94" vertex="1" connectable="0">
          <mxGeometry x="-0.3511" y="4" relative="1" as="geometry">
            <mxPoint as="offset" />
          </mxGeometry>
        </mxCell>
        <mxCell id="GukLXgy1mVPKZHK0rCK0-67" value="CLIENTE EXISTE&amp;nbsp;" style="strokeWidth=2;html=1;shape=mxgraph.flowchart.decision;whiteSpace=wrap;fillColor=#b0e3e6;strokeColor=#0e8088;" parent="1" vertex="1">
          <mxGeometry x="756.25" y="-255" width="167.5" height="90" as="geometry" />
        </mxCell>
        <mxCell id="GukLXgy1mVPKZHK0rCK0-91" style="edgeStyle=orthogonalEdgeStyle;rounded=0;orthogonalLoop=1;jettySize=auto;html=1;exitX=0.5;exitY=1;exitDx=0;exitDy=0;entryX=1;entryY=0.5;entryDx=0;entryDy=0;" parent="1" source="GukLXgy1mVPKZHK0rCK0-68" target="GukLXgy1mVPKZHK0rCK0-88" edge="1">
          <mxGeometry relative="1" as="geometry" />
        </mxCell>
        <mxCell id="GukLXgy1mVPKZHK0rCK0-68" value="APARECER NA TELA PARA ENCAMINHAR PARA EDITAR / VISUALIZAR CLIENTE" style="rounded=0;whiteSpace=wrap;html=1;fillColor=#fad7ac;strokeColor=#b46504;" parent="1" vertex="1">
          <mxGeometry x="970" y="-242.5" width="130" height="65" as="geometry" />
        </mxCell>
        <mxCell id="GukLXgy1mVPKZHK0rCK0-80" style="edgeStyle=orthogonalEdgeStyle;rounded=0;orthogonalLoop=1;jettySize=auto;html=1;exitX=0.5;exitY=1;exitDx=0;exitDy=0;entryX=0.5;entryY=0;entryDx=0;entryDy=0;" parent="1" source="GukLXgy1mVPKZHK0rCK0-70" target="GukLXgy1mVPKZHK0rCK0-71" edge="1">
          <mxGeometry relative="1" as="geometry" />
        </mxCell>
        <mxCell id="GukLXgy1mVPKZHK0rCK0-70" value="ABRIR A TELA INICIAL&amp;nbsp;" style="rounded=0;whiteSpace=wrap;html=1;fillColor=#fad7ac;strokeColor=#b46504;" parent="1" vertex="1">
          <mxGeometry x="780" y="-614" width="120" height="60" as="geometry" />
        </mxCell>
        <mxCell id="GukLXgy1mVPKZHK0rCK0-81" style="edgeStyle=orthogonalEdgeStyle;rounded=0;orthogonalLoop=1;jettySize=auto;html=1;exitX=0.5;exitY=1;exitDx=0;exitDy=0;" parent="1" source="GukLXgy1mVPKZHK0rCK0-71" target="GukLXgy1mVPKZHK0rCK0-72" edge="1">
          <mxGeometry relative="1" as="geometry" />
        </mxCell>
        <mxCell id="GukLXgy1mVPKZHK0rCK0-71" value="CLICAR NO ÍCONE CADASTRAR" style="rounded=0;whiteSpace=wrap;html=1;fillColor=#fad7ac;strokeColor=#b46504;" parent="1" vertex="1">
          <mxGeometry x="780" y="-530" width="120" height="60" as="geometry" />
        </mxCell>
        <mxCell id="GukLXgy1mVPKZHK0rCK0-107" style="edgeStyle=orthogonalEdgeStyle;rounded=0;orthogonalLoop=1;jettySize=auto;html=1;exitX=0.5;exitY=1;exitDx=0;exitDy=0;" parent="1" source="GukLXgy1mVPKZHK0rCK0-72" target="GukLXgy1mVPKZHK0rCK0-77" edge="1">
          <mxGeometry relative="1" as="geometry" />
        </mxCell>
        <mxCell id="GukLXgy1mVPKZHK0rCK0-72" value="SELECIONAR CLIENTES" style="rounded=0;whiteSpace=wrap;html=1;fillColor=#fad7ac;strokeColor=#b46504;" parent="1" vertex="1">
          <mxGeometry x="780" y="-440" width="120" height="60" as="geometry" />
        </mxCell>
        <mxCell id="GukLXgy1mVPKZHK0rCK0-108" style="edgeStyle=orthogonalEdgeStyle;rounded=0;orthogonalLoop=1;jettySize=auto;html=1;exitX=0.5;exitY=1;exitDx=0;exitDy=0;" parent="1" source="GukLXgy1mVPKZHK0rCK0-77" target="GukLXgy1mVPKZHK0rCK0-67" edge="1">
          <mxGeometry relative="1" as="geometry" />
        </mxCell>
        <mxCell id="GukLXgy1mVPKZHK0rCK0-77" value="EDITAR COM AS INFORMAÇÕES DO CLIENTE" style="rounded=0;whiteSpace=wrap;html=1;fillColor=#fad7ac;strokeColor=#b46504;" parent="1" vertex="1">
          <mxGeometry x="780" y="-350" width="120" height="60" as="geometry" />
        </mxCell>
        <mxCell id="GukLXgy1mVPKZHK0rCK0-89" style="edgeStyle=orthogonalEdgeStyle;rounded=0;orthogonalLoop=1;jettySize=auto;html=1;exitX=0.5;exitY=1;exitDx=0;exitDy=0;" parent="1" source="GukLXgy1mVPKZHK0rCK0-78" target="GukLXgy1mVPKZHK0rCK0-88" edge="1">
          <mxGeometry relative="1" as="geometry" />
        </mxCell>
        <mxCell id="GukLXgy1mVPKZHK0rCK0-78" value="CONCLUIR CADASTRO DE CLIENTE&amp;nbsp;" style="rounded=0;whiteSpace=wrap;html=1;fillColor=#fad7ac;strokeColor=#b46504;" parent="1" vertex="1">
          <mxGeometry x="780" y="-80" width="120" height="60" as="geometry" />
        </mxCell>
        <mxCell id="GukLXgy1mVPKZHK0rCK0-88" value="FIM&amp;nbsp;" style="ellipse;whiteSpace=wrap;html=1;fillColor=#e1d5e7;strokeColor=#9673a6;" parent="1" vertex="1">
          <mxGeometry x="780" y="50" width="120" height="80" as="geometry" />
        </mxCell>
        <mxCell id="GukLXgy1mVPKZHK0rCK0-98" style="edgeStyle=orthogonalEdgeStyle;rounded=0;orthogonalLoop=1;jettySize=auto;html=1;exitX=0.5;exitY=1;exitDx=0;exitDy=0;entryX=0.5;entryY=0;entryDx=0;entryDy=0;" parent="1" target="GukLXgy1mVPKZHK0rCK0-100" edge="1">
          <mxGeometry relative="1" as="geometry">
            <mxPoint x="1320" y="-600" as="sourcePoint" />
          </mxGeometry>
        </mxCell>
        <mxCell id="GukLXgy1mVPKZHK0rCK0-99" style="edgeStyle=orthogonalEdgeStyle;rounded=0;orthogonalLoop=1;jettySize=auto;html=1;exitX=0.5;exitY=1;exitDx=0;exitDy=0;entryX=0.5;entryY=0;entryDx=0;entryDy=0;" parent="1" source="GukLXgy1mVPKZHK0rCK0-100" target="GukLXgy1mVPKZHK0rCK0-102" edge="1">
          <mxGeometry relative="1" as="geometry" />
        </mxCell>
        <mxCell id="GukLXgy1mVPKZHK0rCK0-100" value="ABRIR A TELA INICIAL&amp;nbsp;" style="rounded=0;whiteSpace=wrap;html=1;fillColor=#fad7ac;strokeColor=#b46504;" parent="1" vertex="1">
          <mxGeometry x="1260" y="-574" width="120" height="60" as="geometry" />
        </mxCell>
        <mxCell id="GukLXgy1mVPKZHK0rCK0-101" style="edgeStyle=orthogonalEdgeStyle;rounded=0;orthogonalLoop=1;jettySize=auto;html=1;exitX=0.5;exitY=1;exitDx=0;exitDy=0;" parent="1" source="GukLXgy1mVPKZHK0rCK0-102" target="GukLXgy1mVPKZHK0rCK0-104" edge="1">
          <mxGeometry relative="1" as="geometry" />
        </mxCell>
        <mxCell id="GukLXgy1mVPKZHK0rCK0-102" value="CLICAR NO ÍCONE EDITAR" style="rounded=0;whiteSpace=wrap;html=1;fillColor=#fad7ac;strokeColor=#b46504;" parent="1" vertex="1">
          <mxGeometry x="1260" y="-490" width="120" height="60" as="geometry" />
        </mxCell>
        <mxCell id="GukLXgy1mVPKZHK0rCK0-103" style="edgeStyle=orthogonalEdgeStyle;rounded=0;orthogonalLoop=1;jettySize=auto;html=1;exitX=0.5;exitY=1;exitDx=0;exitDy=0;" parent="1" source="GukLXgy1mVPKZHK0rCK0-104" target="GukLXgy1mVPKZHK0rCK0-105" edge="1">
          <mxGeometry relative="1" as="geometry" />
        </mxCell>
        <mxCell id="GukLXgy1mVPKZHK0rCK0-104" value="SELECIONAR CLIENTES" style="rounded=0;whiteSpace=wrap;html=1;fillColor=#fad7ac;strokeColor=#b46504;" parent="1" vertex="1">
          <mxGeometry x="1260" y="-400" width="120" height="60" as="geometry" />
        </mxCell>
        <mxCell id="GukLXgy1mVPKZHK0rCK0-124" style="edgeStyle=orthogonalEdgeStyle;rounded=0;orthogonalLoop=1;jettySize=auto;html=1;exitX=0.5;exitY=1;exitDx=0;exitDy=0;" parent="1" source="GukLXgy1mVPKZHK0rCK0-105" target="GukLXgy1mVPKZHK0rCK0-122" edge="1">
          <mxGeometry relative="1" as="geometry" />
        </mxCell>
        <mxCell id="GukLXgy1mVPKZHK0rCK0-105" value="VISUALIZAR LISTA DE CLIENTES&amp;nbsp;" style="rounded=0;whiteSpace=wrap;html=1;fillColor=#fad7ac;strokeColor=#b46504;" parent="1" vertex="1">
          <mxGeometry x="1260" y="-300" width="120" height="60" as="geometry" />
        </mxCell>
        <mxCell id="GukLXgy1mVPKZHK0rCK0-106" value="INÍCIO" style="ellipse;whiteSpace=wrap;html=1;fillColor=#d0cee2;strokeColor=#56517e;" parent="1" vertex="1">
          <mxGeometry x="1260" y="-680" width="120" height="80" as="geometry" />
        </mxCell>
        <mxCell id="GukLXgy1mVPKZHK0rCK0-114" style="edgeStyle=orthogonalEdgeStyle;rounded=0;orthogonalLoop=1;jettySize=auto;html=1;exitX=0.5;exitY=1;exitDx=0;exitDy=0;" parent="1" source="GukLXgy1mVPKZHK0rCK0-116" target="GukLXgy1mVPKZHK0rCK0-121" edge="1">
          <mxGeometry relative="1" as="geometry" />
        </mxCell>
        <mxCell id="GukLXgy1mVPKZHK0rCK0-116" value="CLICAR NO LÁPIS PARA EDITAR" style="rounded=0;whiteSpace=wrap;html=1;fillColor=#fad7ac;strokeColor=#b46504;" parent="1" vertex="1">
          <mxGeometry x="1260" y="-70" width="120" height="60" as="geometry" />
        </mxCell>
        <mxCell id="GukLXgy1mVPKZHK0rCK0-134" style="edgeStyle=orthogonalEdgeStyle;rounded=0;orthogonalLoop=1;jettySize=auto;html=1;exitX=1;exitY=0.5;exitDx=0;exitDy=0;" parent="1" source="GukLXgy1mVPKZHK0rCK0-118" target="GukLXgy1mVPKZHK0rCK0-127" edge="1">
          <mxGeometry relative="1" as="geometry" />
        </mxCell>
        <mxCell id="GukLXgy1mVPKZHK0rCK0-118" value="PESQUISAR CLIENTE QUE DESEJA" style="rounded=0;whiteSpace=wrap;html=1;fillColor=#fad7ac;strokeColor=#b46504;" parent="1" vertex="1">
          <mxGeometry x="1440" y="-185" width="120" height="60" as="geometry" />
        </mxCell>
        <mxCell id="GukLXgy1mVPKZHK0rCK0-121" value="FIM" style="ellipse;whiteSpace=wrap;html=1;fillColor=#e1d5e7;strokeColor=#9673a6;" parent="1" vertex="1">
          <mxGeometry x="1260" y="40" width="120" height="80" as="geometry" />
        </mxCell>
        <mxCell id="GukLXgy1mVPKZHK0rCK0-125" style="edgeStyle=orthogonalEdgeStyle;rounded=0;orthogonalLoop=1;jettySize=auto;html=1;exitX=0.5;exitY=1;exitDx=0;exitDy=0;exitPerimeter=0;" parent="1" source="GukLXgy1mVPKZHK0rCK0-122" target="GukLXgy1mVPKZHK0rCK0-116" edge="1">
          <mxGeometry relative="1" as="geometry" />
        </mxCell>
        <mxCell id="GukLXgy1mVPKZHK0rCK0-139" value="SIM" style="edgeLabel;html=1;align=center;verticalAlign=middle;resizable=0;points=[];" parent="GukLXgy1mVPKZHK0rCK0-125" vertex="1" connectable="0">
          <mxGeometry x="-0.55" relative="1" as="geometry">
            <mxPoint as="offset" />
          </mxGeometry>
        </mxCell>
        <mxCell id="GukLXgy1mVPKZHK0rCK0-126" style="edgeStyle=orthogonalEdgeStyle;rounded=0;orthogonalLoop=1;jettySize=auto;html=1;exitX=1;exitY=0.5;exitDx=0;exitDy=0;exitPerimeter=0;" parent="1" source="GukLXgy1mVPKZHK0rCK0-122" target="GukLXgy1mVPKZHK0rCK0-118" edge="1">
          <mxGeometry relative="1" as="geometry" />
        </mxCell>
        <mxCell id="GukLXgy1mVPKZHK0rCK0-137" value="NÃO" style="edgeLabel;html=1;align=center;verticalAlign=middle;resizable=0;points=[];" parent="GukLXgy1mVPKZHK0rCK0-126" vertex="1" connectable="0">
          <mxGeometry x="-0.6" y="1" relative="1" as="geometry">
            <mxPoint as="offset" />
          </mxGeometry>
        </mxCell>
        <mxCell id="GukLXgy1mVPKZHK0rCK0-122" value="CLIENTE APARECEU&lt;div&gt;&amp;nbsp;NA TELA&amp;nbsp;&lt;/div&gt;" style="strokeWidth=2;html=1;shape=mxgraph.flowchart.decision;whiteSpace=wrap;fillColor=#b0e3e6;strokeColor=#0e8088;" parent="1" vertex="1">
          <mxGeometry x="1242.5" y="-200" width="155" height="90" as="geometry" />
        </mxCell>
        <mxCell id="GukLXgy1mVPKZHK0rCK0-130" value="" style="edgeStyle=orthogonalEdgeStyle;rounded=0;orthogonalLoop=1;jettySize=auto;html=1;" parent="1" source="GukLXgy1mVPKZHK0rCK0-127" target="GukLXgy1mVPKZHK0rCK0-128" edge="1">
          <mxGeometry relative="1" as="geometry" />
        </mxCell>
        <mxCell id="GukLXgy1mVPKZHK0rCK0-135" value="NÃO" style="edgeLabel;html=1;align=center;verticalAlign=middle;resizable=0;points=[];" parent="GukLXgy1mVPKZHK0rCK0-130" vertex="1" connectable="0">
          <mxGeometry x="-0.1022" y="4" relative="1" as="geometry">
            <mxPoint x="1" as="offset" />
          </mxGeometry>
        </mxCell>
        <mxCell id="GukLXgy1mVPKZHK0rCK0-132" style="edgeStyle=orthogonalEdgeStyle;rounded=0;orthogonalLoop=1;jettySize=auto;html=1;exitX=1;exitY=0.5;exitDx=0;exitDy=0;exitPerimeter=0;entryX=1;entryY=0.5;entryDx=0;entryDy=0;" parent="1" source="GukLXgy1mVPKZHK0rCK0-127" target="GukLXgy1mVPKZHK0rCK0-116" edge="1">
          <mxGeometry relative="1" as="geometry" />
        </mxCell>
        <mxCell id="GukLXgy1mVPKZHK0rCK0-136" value="SIM" style="edgeLabel;html=1;align=center;verticalAlign=middle;resizable=0;points=[];" parent="GukLXgy1mVPKZHK0rCK0-132" vertex="1" connectable="0">
          <mxGeometry x="-0.7438" y="-2" relative="1" as="geometry">
            <mxPoint as="offset" />
          </mxGeometry>
        </mxCell>
        <mxCell id="GukLXgy1mVPKZHK0rCK0-127" value="FOI ENCONTRADO&amp;nbsp;" style="strokeWidth=2;html=1;shape=mxgraph.flowchart.decision;whiteSpace=wrap;fillColor=#b0e3e6;strokeColor=#0e8088;" parent="1" vertex="1">
          <mxGeometry x="1582.5" y="-200" width="150" height="90" as="geometry" />
        </mxCell>
        <mxCell id="GukLXgy1mVPKZHK0rCK0-211" style="edgeStyle=orthogonalEdgeStyle;rounded=0;orthogonalLoop=1;jettySize=auto;html=1;exitX=1;exitY=0.5;exitDx=0;exitDy=0;entryX=1;entryY=0.5;entryDx=0;entryDy=0;" parent="1" source="GukLXgy1mVPKZHK0rCK0-128" target="GukLXgy1mVPKZHK0rCK0-121" edge="1">
          <mxGeometry relative="1" as="geometry">
            <Array as="points">
              <mxPoint x="1790" y="-270" />
              <mxPoint x="1790" y="80" />
            </Array>
          </mxGeometry>
        </mxCell>
        <mxCell id="GukLXgy1mVPKZHK0rCK0-128" value="IR PARA TELA DE CADASTRO CLIENTE&amp;nbsp;" style="rounded=0;whiteSpace=wrap;html=1;fillColor=#fad7ac;strokeColor=#b46504;" parent="1" vertex="1">
          <mxGeometry x="1596.25" y="-300" width="122.5" height="60" as="geometry" />
        </mxCell>
        <mxCell id="GukLXgy1mVPKZHK0rCK0-140" style="edgeStyle=orthogonalEdgeStyle;rounded=0;orthogonalLoop=1;jettySize=auto;html=1;exitX=0.5;exitY=1;exitDx=0;exitDy=0;entryX=0.5;entryY=0;entryDx=0;entryDy=0;" parent="1" target="GukLXgy1mVPKZHK0rCK0-142" edge="1">
          <mxGeometry relative="1" as="geometry">
            <mxPoint x="1907.5" y="-600" as="sourcePoint" />
          </mxGeometry>
        </mxCell>
        <mxCell id="GukLXgy1mVPKZHK0rCK0-141" style="edgeStyle=orthogonalEdgeStyle;rounded=0;orthogonalLoop=1;jettySize=auto;html=1;exitX=0.5;exitY=1;exitDx=0;exitDy=0;entryX=0.5;entryY=0;entryDx=0;entryDy=0;" parent="1" source="GukLXgy1mVPKZHK0rCK0-142" target="GukLXgy1mVPKZHK0rCK0-144" edge="1">
          <mxGeometry relative="1" as="geometry" />
        </mxCell>
        <mxCell id="GukLXgy1mVPKZHK0rCK0-142" value="ABRIR A TELA INICIAL&amp;nbsp;" style="rounded=0;whiteSpace=wrap;html=1;fillColor=#fad7ac;strokeColor=#b46504;" parent="1" vertex="1">
          <mxGeometry x="1847.5" y="-574" width="120" height="60" as="geometry" />
        </mxCell>
        <mxCell id="GukLXgy1mVPKZHK0rCK0-143" style="edgeStyle=orthogonalEdgeStyle;rounded=0;orthogonalLoop=1;jettySize=auto;html=1;exitX=0.5;exitY=1;exitDx=0;exitDy=0;" parent="1" source="GukLXgy1mVPKZHK0rCK0-144" target="GukLXgy1mVPKZHK0rCK0-146" edge="1">
          <mxGeometry relative="1" as="geometry" />
        </mxCell>
        <mxCell id="GukLXgy1mVPKZHK0rCK0-144" value="CLICAR NO ÍCONE EXCLUIR" style="rounded=0;whiteSpace=wrap;html=1;fillColor=#fad7ac;strokeColor=#b46504;" parent="1" vertex="1">
          <mxGeometry x="1847.5" y="-490" width="120" height="60" as="geometry" />
        </mxCell>
        <mxCell id="GukLXgy1mVPKZHK0rCK0-145" style="edgeStyle=orthogonalEdgeStyle;rounded=0;orthogonalLoop=1;jettySize=auto;html=1;exitX=0.5;exitY=1;exitDx=0;exitDy=0;" parent="1" source="GukLXgy1mVPKZHK0rCK0-146" target="GukLXgy1mVPKZHK0rCK0-148" edge="1">
          <mxGeometry relative="1" as="geometry" />
        </mxCell>
        <mxCell id="GukLXgy1mVPKZHK0rCK0-146" value="SELECIONAR CLIENTES" style="rounded=0;whiteSpace=wrap;html=1;fillColor=#fad7ac;strokeColor=#b46504;" parent="1" vertex="1">
          <mxGeometry x="1847.5" y="-400" width="120" height="60" as="geometry" />
        </mxCell>
        <mxCell id="GukLXgy1mVPKZHK0rCK0-147" style="edgeStyle=orthogonalEdgeStyle;rounded=0;orthogonalLoop=1;jettySize=auto;html=1;exitX=0.5;exitY=1;exitDx=0;exitDy=0;" parent="1" source="GukLXgy1mVPKZHK0rCK0-148" target="GukLXgy1mVPKZHK0rCK0-159" edge="1">
          <mxGeometry relative="1" as="geometry" />
        </mxCell>
        <mxCell id="GukLXgy1mVPKZHK0rCK0-148" value="VISUALIZAR LISTA DE CLIENTES&amp;nbsp;" style="rounded=0;whiteSpace=wrap;html=1;fillColor=#fad7ac;strokeColor=#b46504;" parent="1" vertex="1">
          <mxGeometry x="1847.5" y="-300" width="120" height="60" as="geometry" />
        </mxCell>
        <mxCell id="GukLXgy1mVPKZHK0rCK0-149" value="INÍCIO" style="ellipse;whiteSpace=wrap;html=1;fillColor=#d0cee2;strokeColor=#56517e;" parent="1" vertex="1">
          <mxGeometry x="1847.5" y="-680" width="120" height="80" as="geometry" />
        </mxCell>
        <mxCell id="GukLXgy1mVPKZHK0rCK0-168" style="edgeStyle=orthogonalEdgeStyle;rounded=0;orthogonalLoop=1;jettySize=auto;html=1;exitX=0.5;exitY=1;exitDx=0;exitDy=0;" parent="1" source="GukLXgy1mVPKZHK0rCK0-151" target="GukLXgy1mVPKZHK0rCK0-167" edge="1">
          <mxGeometry relative="1" as="geometry" />
        </mxCell>
        <mxCell id="GukLXgy1mVPKZHK0rCK0-151" value="CLICAR NO LIXO PARA EXCLUIR" style="rounded=0;whiteSpace=wrap;html=1;fillColor=#fad7ac;strokeColor=#b46504;" parent="1" vertex="1">
          <mxGeometry x="1847.5" y="-70" width="120" height="60" as="geometry" />
        </mxCell>
        <mxCell id="GukLXgy1mVPKZHK0rCK0-152" style="edgeStyle=orthogonalEdgeStyle;rounded=0;orthogonalLoop=1;jettySize=auto;html=1;exitX=1;exitY=0.5;exitDx=0;exitDy=0;" parent="1" source="GukLXgy1mVPKZHK0rCK0-153" target="GukLXgy1mVPKZHK0rCK0-164" edge="1">
          <mxGeometry relative="1" as="geometry" />
        </mxCell>
        <mxCell id="GukLXgy1mVPKZHK0rCK0-153" value="PESQUISAR CLIENTE QUE DESEJA" style="rounded=0;whiteSpace=wrap;html=1;fillColor=#fad7ac;strokeColor=#b46504;" parent="1" vertex="1">
          <mxGeometry x="2027.5" y="-185" width="120" height="60" as="geometry" />
        </mxCell>
        <mxCell id="GukLXgy1mVPKZHK0rCK0-155" style="edgeStyle=orthogonalEdgeStyle;rounded=0;orthogonalLoop=1;jettySize=auto;html=1;exitX=0.5;exitY=1;exitDx=0;exitDy=0;exitPerimeter=0;" parent="1" source="GukLXgy1mVPKZHK0rCK0-159" target="GukLXgy1mVPKZHK0rCK0-151" edge="1">
          <mxGeometry relative="1" as="geometry" />
        </mxCell>
        <mxCell id="GukLXgy1mVPKZHK0rCK0-156" value="SIM" style="edgeLabel;html=1;align=center;verticalAlign=middle;resizable=0;points=[];" parent="GukLXgy1mVPKZHK0rCK0-155" vertex="1" connectable="0">
          <mxGeometry x="-0.55" relative="1" as="geometry">
            <mxPoint as="offset" />
          </mxGeometry>
        </mxCell>
        <mxCell id="GukLXgy1mVPKZHK0rCK0-157" style="edgeStyle=orthogonalEdgeStyle;rounded=0;orthogonalLoop=1;jettySize=auto;html=1;exitX=1;exitY=0.5;exitDx=0;exitDy=0;exitPerimeter=0;" parent="1" source="GukLXgy1mVPKZHK0rCK0-159" target="GukLXgy1mVPKZHK0rCK0-153" edge="1">
          <mxGeometry relative="1" as="geometry" />
        </mxCell>
        <mxCell id="GukLXgy1mVPKZHK0rCK0-158" value="NÃO" style="edgeLabel;html=1;align=center;verticalAlign=middle;resizable=0;points=[];" parent="GukLXgy1mVPKZHK0rCK0-157" vertex="1" connectable="0">
          <mxGeometry x="-0.6" y="1" relative="1" as="geometry">
            <mxPoint as="offset" />
          </mxGeometry>
        </mxCell>
        <mxCell id="GukLXgy1mVPKZHK0rCK0-159" value="CLIENTE APARECEU&lt;div&gt;&amp;nbsp;NA TELA&amp;nbsp;&lt;/div&gt;" style="strokeWidth=2;html=1;shape=mxgraph.flowchart.decision;whiteSpace=wrap;fillColor=#b0e3e6;strokeColor=#0e8088;" parent="1" vertex="1">
          <mxGeometry x="1830" y="-200" width="155" height="90" as="geometry" />
        </mxCell>
        <mxCell id="GukLXgy1mVPKZHK0rCK0-160" value="" style="edgeStyle=orthogonalEdgeStyle;rounded=0;orthogonalLoop=1;jettySize=auto;html=1;" parent="1" source="GukLXgy1mVPKZHK0rCK0-164" target="GukLXgy1mVPKZHK0rCK0-165" edge="1">
          <mxGeometry relative="1" as="geometry" />
        </mxCell>
        <mxCell id="GukLXgy1mVPKZHK0rCK0-161" value="NÃO" style="edgeLabel;html=1;align=center;verticalAlign=middle;resizable=0;points=[];" parent="GukLXgy1mVPKZHK0rCK0-160" vertex="1" connectable="0">
          <mxGeometry x="-0.1022" y="4" relative="1" as="geometry">
            <mxPoint x="1" as="offset" />
          </mxGeometry>
        </mxCell>
        <mxCell id="GukLXgy1mVPKZHK0rCK0-162" style="edgeStyle=orthogonalEdgeStyle;rounded=0;orthogonalLoop=1;jettySize=auto;html=1;exitX=1;exitY=0.5;exitDx=0;exitDy=0;exitPerimeter=0;entryX=1;entryY=0.5;entryDx=0;entryDy=0;" parent="1" source="GukLXgy1mVPKZHK0rCK0-164" target="GukLXgy1mVPKZHK0rCK0-151" edge="1">
          <mxGeometry relative="1" as="geometry" />
        </mxCell>
        <mxCell id="GukLXgy1mVPKZHK0rCK0-163" value="SIM" style="edgeLabel;html=1;align=center;verticalAlign=middle;resizable=0;points=[];" parent="GukLXgy1mVPKZHK0rCK0-162" vertex="1" connectable="0">
          <mxGeometry x="-0.7438" y="-2" relative="1" as="geometry">
            <mxPoint as="offset" />
          </mxGeometry>
        </mxCell>
        <mxCell id="GukLXgy1mVPKZHK0rCK0-164" value="FOI ENCONTRADO&amp;nbsp;" style="strokeWidth=2;html=1;shape=mxgraph.flowchart.decision;whiteSpace=wrap;fillColor=#b0e3e6;strokeColor=#0e8088;" parent="1" vertex="1">
          <mxGeometry x="2170" y="-200" width="150" height="90" as="geometry" />
        </mxCell>
        <mxCell id="GukLXgy1mVPKZHK0rCK0-174" style="edgeStyle=orthogonalEdgeStyle;rounded=0;orthogonalLoop=1;jettySize=auto;html=1;exitX=1;exitY=0.5;exitDx=0;exitDy=0;entryX=1;entryY=0.5;entryDx=0;entryDy=0;" parent="1" source="GukLXgy1mVPKZHK0rCK0-165" target="GukLXgy1mVPKZHK0rCK0-169" edge="1">
          <mxGeometry relative="1" as="geometry">
            <Array as="points">
              <mxPoint x="2400" y="-270" />
              <mxPoint x="2400" y="310" />
            </Array>
          </mxGeometry>
        </mxCell>
        <mxCell id="GukLXgy1mVPKZHK0rCK0-165" value="IR PARA TELA DE CADASTRO CLIENTE&amp;nbsp;" style="rounded=0;whiteSpace=wrap;html=1;fillColor=#fad7ac;strokeColor=#b46504;" parent="1" vertex="1">
          <mxGeometry x="2183.75" y="-300" width="122.5" height="60" as="geometry" />
        </mxCell>
        <mxCell id="GukLXgy1mVPKZHK0rCK0-172" style="edgeStyle=orthogonalEdgeStyle;rounded=0;orthogonalLoop=1;jettySize=auto;html=1;exitX=0.5;exitY=1;exitDx=0;exitDy=0;" parent="1" source="GukLXgy1mVPKZHK0rCK0-167" target="GukLXgy1mVPKZHK0rCK0-171" edge="1">
          <mxGeometry relative="1" as="geometry" />
        </mxCell>
        <mxCell id="GukLXgy1mVPKZHK0rCK0-167" value="&lt;font style=&quot;font-size: 10px;&quot;&gt;ESCREVER O MOTIVO DA EXCLUSÃO PARA DOCUMENTAÇÃO FUTURA&lt;/font&gt;" style="rounded=0;whiteSpace=wrap;html=1;fillColor=#fad7ac;strokeColor=#b46504;" parent="1" vertex="1">
          <mxGeometry x="1847.5" y="50" width="120" height="60" as="geometry" />
        </mxCell>
        <mxCell id="GukLXgy1mVPKZHK0rCK0-169" value="FIM" style="ellipse;whiteSpace=wrap;html=1;fillColor=#e1d5e7;strokeColor=#9673a6;" parent="1" vertex="1">
          <mxGeometry x="1847.5" y="270" width="120" height="80" as="geometry" />
        </mxCell>
        <mxCell id="GukLXgy1mVPKZHK0rCK0-173" style="edgeStyle=orthogonalEdgeStyle;rounded=0;orthogonalLoop=1;jettySize=auto;html=1;exitX=0.5;exitY=1;exitDx=0;exitDy=0;" parent="1" source="GukLXgy1mVPKZHK0rCK0-171" target="GukLXgy1mVPKZHK0rCK0-169" edge="1">
          <mxGeometry relative="1" as="geometry" />
        </mxCell>
        <mxCell id="GukLXgy1mVPKZHK0rCK0-171" value="CLICAR EM CONCLUIR" style="rounded=0;whiteSpace=wrap;html=1;fillColor=#fad7ac;strokeColor=#b46504;" parent="1" vertex="1">
          <mxGeometry x="1847.5" y="160" width="120" height="60" as="geometry" />
        </mxCell>
        <mxCell id="GukLXgy1mVPKZHK0rCK0-175" style="edgeStyle=orthogonalEdgeStyle;rounded=0;orthogonalLoop=1;jettySize=auto;html=1;exitX=0.5;exitY=1;exitDx=0;exitDy=0;entryX=0.5;entryY=0;entryDx=0;entryDy=0;" parent="1" target="GukLXgy1mVPKZHK0rCK0-177" edge="1">
          <mxGeometry relative="1" as="geometry">
            <mxPoint x="2537.5" y="-540" as="sourcePoint" />
          </mxGeometry>
        </mxCell>
        <mxCell id="GukLXgy1mVPKZHK0rCK0-176" style="edgeStyle=orthogonalEdgeStyle;rounded=0;orthogonalLoop=1;jettySize=auto;html=1;exitX=0.5;exitY=1;exitDx=0;exitDy=0;entryX=0.5;entryY=0;entryDx=0;entryDy=0;" parent="1" source="GukLXgy1mVPKZHK0rCK0-177" target="GukLXgy1mVPKZHK0rCK0-179" edge="1">
          <mxGeometry relative="1" as="geometry" />
        </mxCell>
        <mxCell id="GukLXgy1mVPKZHK0rCK0-177" value="ABRIR A TELA INICIAL&amp;nbsp;" style="rounded=0;whiteSpace=wrap;html=1;fillColor=#fad7ac;strokeColor=#b46504;" parent="1" vertex="1">
          <mxGeometry x="2477.5" y="-514" width="120" height="60" as="geometry" />
        </mxCell>
        <mxCell id="GukLXgy1mVPKZHK0rCK0-178" style="edgeStyle=orthogonalEdgeStyle;rounded=0;orthogonalLoop=1;jettySize=auto;html=1;exitX=0.5;exitY=1;exitDx=0;exitDy=0;" parent="1" source="GukLXgy1mVPKZHK0rCK0-179" target="GukLXgy1mVPKZHK0rCK0-181" edge="1">
          <mxGeometry relative="1" as="geometry" />
        </mxCell>
        <mxCell id="GukLXgy1mVPKZHK0rCK0-179" value="CLICAR NO ÍCONE EXCLUIR" style="rounded=0;whiteSpace=wrap;html=1;fillColor=#fad7ac;strokeColor=#b46504;" parent="1" vertex="1">
          <mxGeometry x="2477.5" y="-430" width="120" height="60" as="geometry" />
        </mxCell>
        <mxCell id="GukLXgy1mVPKZHK0rCK0-180" style="edgeStyle=orthogonalEdgeStyle;rounded=0;orthogonalLoop=1;jettySize=auto;html=1;exitX=0.5;exitY=1;exitDx=0;exitDy=0;" parent="1" source="GukLXgy1mVPKZHK0rCK0-181" target="GukLXgy1mVPKZHK0rCK0-183" edge="1">
          <mxGeometry relative="1" as="geometry" />
        </mxCell>
        <mxCell id="GukLXgy1mVPKZHK0rCK0-181" value="SELECIONAR CLIENTES" style="rounded=0;whiteSpace=wrap;html=1;fillColor=#fad7ac;strokeColor=#b46504;" parent="1" vertex="1">
          <mxGeometry x="2477.5" y="-340" width="120" height="60" as="geometry" />
        </mxCell>
        <mxCell id="GukLXgy1mVPKZHK0rCK0-182" style="edgeStyle=orthogonalEdgeStyle;rounded=0;orthogonalLoop=1;jettySize=auto;html=1;exitX=0.5;exitY=1;exitDx=0;exitDy=0;" parent="1" source="GukLXgy1mVPKZHK0rCK0-183" target="GukLXgy1mVPKZHK0rCK0-193" edge="1">
          <mxGeometry relative="1" as="geometry" />
        </mxCell>
        <mxCell id="GukLXgy1mVPKZHK0rCK0-183" value="VISUALIZAR LISTA DE CLIENTES&amp;nbsp;" style="rounded=0;whiteSpace=wrap;html=1;fillColor=#fad7ac;strokeColor=#b46504;" parent="1" vertex="1">
          <mxGeometry x="2477.5" y="-240" width="120" height="60" as="geometry" />
        </mxCell>
        <mxCell id="GukLXgy1mVPKZHK0rCK0-184" value="INÍCIO" style="ellipse;whiteSpace=wrap;html=1;fillColor=#d0cee2;strokeColor=#56517e;" parent="1" vertex="1">
          <mxGeometry x="2477.5" y="-620" width="120" height="80" as="geometry" />
        </mxCell>
        <mxCell id="GukLXgy1mVPKZHK0rCK0-206" style="edgeStyle=orthogonalEdgeStyle;rounded=0;orthogonalLoop=1;jettySize=auto;html=1;exitX=0.5;exitY=1;exitDx=0;exitDy=0;" parent="1" source="GukLXgy1mVPKZHK0rCK0-186" target="GukLXgy1mVPKZHK0rCK0-205" edge="1">
          <mxGeometry relative="1" as="geometry" />
        </mxCell>
        <mxCell id="GukLXgy1mVPKZHK0rCK0-186" value="CLICAR PARA EDITAR CLIENTE" style="rounded=0;whiteSpace=wrap;html=1;fillColor=#fad7ac;strokeColor=#b46504;" parent="1" vertex="1">
          <mxGeometry x="2477.5" y="-10" width="120" height="60" as="geometry" />
        </mxCell>
        <mxCell id="GukLXgy1mVPKZHK0rCK0-187" style="edgeStyle=orthogonalEdgeStyle;rounded=0;orthogonalLoop=1;jettySize=auto;html=1;exitX=1;exitY=0.5;exitDx=0;exitDy=0;" parent="1" source="GukLXgy1mVPKZHK0rCK0-188" target="GukLXgy1mVPKZHK0rCK0-198" edge="1">
          <mxGeometry relative="1" as="geometry" />
        </mxCell>
        <mxCell id="GukLXgy1mVPKZHK0rCK0-188" value="PESQUISAR CLIENTE QUE DESEJA" style="rounded=0;whiteSpace=wrap;html=1;fillColor=#fad7ac;strokeColor=#b46504;" parent="1" vertex="1">
          <mxGeometry x="2657.5" y="-125" width="120" height="60" as="geometry" />
        </mxCell>
        <mxCell id="GukLXgy1mVPKZHK0rCK0-189" style="edgeStyle=orthogonalEdgeStyle;rounded=0;orthogonalLoop=1;jettySize=auto;html=1;exitX=0.5;exitY=1;exitDx=0;exitDy=0;exitPerimeter=0;" parent="1" source="GukLXgy1mVPKZHK0rCK0-193" target="GukLXgy1mVPKZHK0rCK0-186" edge="1">
          <mxGeometry relative="1" as="geometry" />
        </mxCell>
        <mxCell id="GukLXgy1mVPKZHK0rCK0-190" value="SIM" style="edgeLabel;html=1;align=center;verticalAlign=middle;resizable=0;points=[];" parent="GukLXgy1mVPKZHK0rCK0-189" vertex="1" connectable="0">
          <mxGeometry x="-0.55" relative="1" as="geometry">
            <mxPoint as="offset" />
          </mxGeometry>
        </mxCell>
        <mxCell id="GukLXgy1mVPKZHK0rCK0-191" style="edgeStyle=orthogonalEdgeStyle;rounded=0;orthogonalLoop=1;jettySize=auto;html=1;exitX=1;exitY=0.5;exitDx=0;exitDy=0;exitPerimeter=0;" parent="1" source="GukLXgy1mVPKZHK0rCK0-193" target="GukLXgy1mVPKZHK0rCK0-188" edge="1">
          <mxGeometry relative="1" as="geometry" />
        </mxCell>
        <mxCell id="GukLXgy1mVPKZHK0rCK0-192" value="NÃO" style="edgeLabel;html=1;align=center;verticalAlign=middle;resizable=0;points=[];" parent="GukLXgy1mVPKZHK0rCK0-191" vertex="1" connectable="0">
          <mxGeometry x="-0.6" y="1" relative="1" as="geometry">
            <mxPoint as="offset" />
          </mxGeometry>
        </mxCell>
        <mxCell id="GukLXgy1mVPKZHK0rCK0-193" value="CLIENTE APARECEU&lt;div&gt;&amp;nbsp;NA TELA&amp;nbsp;&lt;/div&gt;" style="strokeWidth=2;html=1;shape=mxgraph.flowchart.decision;whiteSpace=wrap;fillColor=#b0e3e6;strokeColor=#0e8088;" parent="1" vertex="1">
          <mxGeometry x="2460" y="-140" width="155" height="90" as="geometry" />
        </mxCell>
        <mxCell id="GukLXgy1mVPKZHK0rCK0-194" value="" style="edgeStyle=orthogonalEdgeStyle;rounded=0;orthogonalLoop=1;jettySize=auto;html=1;" parent="1" source="GukLXgy1mVPKZHK0rCK0-198" target="GukLXgy1mVPKZHK0rCK0-200" edge="1">
          <mxGeometry relative="1" as="geometry" />
        </mxCell>
        <mxCell id="GukLXgy1mVPKZHK0rCK0-195" value="NÃO" style="edgeLabel;html=1;align=center;verticalAlign=middle;resizable=0;points=[];" parent="GukLXgy1mVPKZHK0rCK0-194" vertex="1" connectable="0">
          <mxGeometry x="-0.1022" y="4" relative="1" as="geometry">
            <mxPoint x="1" as="offset" />
          </mxGeometry>
        </mxCell>
        <mxCell id="GukLXgy1mVPKZHK0rCK0-196" style="edgeStyle=orthogonalEdgeStyle;rounded=0;orthogonalLoop=1;jettySize=auto;html=1;exitX=1;exitY=0.5;exitDx=0;exitDy=0;exitPerimeter=0;entryX=1;entryY=0.5;entryDx=0;entryDy=0;" parent="1" source="GukLXgy1mVPKZHK0rCK0-198" target="GukLXgy1mVPKZHK0rCK0-186" edge="1">
          <mxGeometry relative="1" as="geometry" />
        </mxCell>
        <mxCell id="GukLXgy1mVPKZHK0rCK0-197" value="SIM" style="edgeLabel;html=1;align=center;verticalAlign=middle;resizable=0;points=[];" parent="GukLXgy1mVPKZHK0rCK0-196" vertex="1" connectable="0">
          <mxGeometry x="-0.7438" y="-2" relative="1" as="geometry">
            <mxPoint as="offset" />
          </mxGeometry>
        </mxCell>
        <mxCell id="GukLXgy1mVPKZHK0rCK0-198" value="FOI ENCONTRADO&amp;nbsp;" style="strokeWidth=2;html=1;shape=mxgraph.flowchart.decision;whiteSpace=wrap;fillColor=#b0e3e6;strokeColor=#0e8088;" parent="1" vertex="1">
          <mxGeometry x="2800" y="-140" width="150" height="90" as="geometry" />
        </mxCell>
        <mxCell id="GukLXgy1mVPKZHK0rCK0-200" value="IR PARA TELA DE CADASTRO CLIENTE&amp;nbsp;" style="rounded=0;whiteSpace=wrap;html=1;fillColor=#fad7ac;strokeColor=#b46504;" parent="1" vertex="1">
          <mxGeometry x="2813.75" y="-240" width="122.5" height="60" as="geometry" />
        </mxCell>
        <mxCell id="GukLXgy1mVPKZHK0rCK0-209" style="edgeStyle=orthogonalEdgeStyle;rounded=0;orthogonalLoop=1;jettySize=auto;html=1;exitX=0.5;exitY=1;exitDx=0;exitDy=0;" parent="1" source="GukLXgy1mVPKZHK0rCK0-202" target="GukLXgy1mVPKZHK0rCK0-208" edge="1">
          <mxGeometry relative="1" as="geometry" />
        </mxCell>
        <mxCell id="GukLXgy1mVPKZHK0rCK0-202" value="&lt;font style=&quot;font-size: 10px;&quot;&gt;ESCREVER O MOTIVO DA EXCLUSÃO PARA DOCUMENTAÇÃO FUTURA&lt;/font&gt;" style="rounded=0;whiteSpace=wrap;html=1;fillColor=#fad7ac;strokeColor=#b46504;" parent="1" vertex="1">
          <mxGeometry x="2477.5" y="190" width="120" height="60" as="geometry" />
        </mxCell>
        <mxCell id="GukLXgy1mVPKZHK0rCK0-203" value="FIM" style="ellipse;whiteSpace=wrap;html=1;fillColor=#e1d5e7;strokeColor=#9673a6;" parent="1" vertex="1">
          <mxGeometry x="2477.5" y="370" width="120" height="80" as="geometry" />
        </mxCell>
        <mxCell id="GukLXgy1mVPKZHK0rCK0-207" style="edgeStyle=orthogonalEdgeStyle;rounded=0;orthogonalLoop=1;jettySize=auto;html=1;exitX=0.5;exitY=1;exitDx=0;exitDy=0;" parent="1" source="GukLXgy1mVPKZHK0rCK0-205" target="GukLXgy1mVPKZHK0rCK0-202" edge="1">
          <mxGeometry relative="1" as="geometry" />
        </mxCell>
        <mxCell id="GukLXgy1mVPKZHK0rCK0-205" value="CLICAR NA LIXEIRA&amp;nbsp;" style="rounded=0;whiteSpace=wrap;html=1;fillColor=#fad7ac;strokeColor=#b46504;" parent="1" vertex="1">
          <mxGeometry x="2477.5" y="90" width="120" height="60" as="geometry" />
        </mxCell>
        <mxCell id="GukLXgy1mVPKZHK0rCK0-210" style="edgeStyle=orthogonalEdgeStyle;rounded=0;orthogonalLoop=1;jettySize=auto;html=1;exitX=0.5;exitY=1;exitDx=0;exitDy=0;" parent="1" source="GukLXgy1mVPKZHK0rCK0-208" target="GukLXgy1mVPKZHK0rCK0-203" edge="1">
          <mxGeometry relative="1" as="geometry" />
        </mxCell>
        <mxCell id="GukLXgy1mVPKZHK0rCK0-208" value="CLICAR EM CONCLUIR" style="rounded=0;whiteSpace=wrap;html=1;fillColor=#fad7ac;strokeColor=#b46504;" parent="1" vertex="1">
          <mxGeometry x="2477.5" y="280" width="120" height="60" as="geometry" />
        </mxCell>
        <mxCell id="GukLXgy1mVPKZHK0rCK0-212" style="edgeStyle=orthogonalEdgeStyle;rounded=0;orthogonalLoop=1;jettySize=auto;html=1;exitX=0.5;exitY=1;exitDx=0;exitDy=0;" parent="1" source="GukLXgy1mVPKZHK0rCK0-213" target="GukLXgy1mVPKZHK0rCK0-215" edge="1">
          <mxGeometry relative="1" as="geometry" />
        </mxCell>
        <mxCell id="GukLXgy1mVPKZHK0rCK0-213" value="INÍCIO" style="ellipse;whiteSpace=wrap;html=1;fillColor=#e1d5e7;strokeColor=#9673a6;" parent="1" vertex="1">
          <mxGeometry x="3117.5" y="-720" width="120" height="80" as="geometry" />
        </mxCell>
        <mxCell id="GukLXgy1mVPKZHK0rCK0-214" style="edgeStyle=orthogonalEdgeStyle;rounded=0;orthogonalLoop=1;jettySize=auto;html=1;exitX=0.5;exitY=1;exitDx=0;exitDy=0;" parent="1" source="GukLXgy1mVPKZHK0rCK0-215" target="GukLXgy1mVPKZHK0rCK0-217" edge="1">
          <mxGeometry relative="1" as="geometry" />
        </mxCell>
        <mxCell id="GukLXgy1mVPKZHK0rCK0-215" value="ABRIR A TELA INICIAL&amp;nbsp;" style="rounded=0;whiteSpace=wrap;html=1;fillColor=#fad7ac;strokeColor=#b46504;" parent="1" vertex="1">
          <mxGeometry x="3117.5" y="-594" width="120" height="60" as="geometry" />
        </mxCell>
        <mxCell id="GukLXgy1mVPKZHK0rCK0-216" style="edgeStyle=orthogonalEdgeStyle;rounded=0;orthogonalLoop=1;jettySize=auto;html=1;exitX=0.5;exitY=1;exitDx=0;exitDy=0;" parent="1" source="GukLXgy1mVPKZHK0rCK0-217" target="GukLXgy1mVPKZHK0rCK0-219" edge="1">
          <mxGeometry relative="1" as="geometry" />
        </mxCell>
        <mxCell id="GukLXgy1mVPKZHK0rCK0-217" value="CLICAR NO ÍCONE LEITURA" style="rounded=0;whiteSpace=wrap;html=1;fillColor=#fad7ac;strokeColor=#b46504;" parent="1" vertex="1">
          <mxGeometry x="3117.5" y="-510" width="120" height="60" as="geometry" />
        </mxCell>
        <mxCell id="GukLXgy1mVPKZHK0rCK0-218" style="edgeStyle=orthogonalEdgeStyle;rounded=0;orthogonalLoop=1;jettySize=auto;html=1;exitX=0.5;exitY=1;exitDx=0;exitDy=0;" parent="1" source="GukLXgy1mVPKZHK0rCK0-219" target="GukLXgy1mVPKZHK0rCK0-221" edge="1">
          <mxGeometry relative="1" as="geometry" />
        </mxCell>
        <mxCell id="GukLXgy1mVPKZHK0rCK0-219" value="SELECIONAR LOTE" style="rounded=0;whiteSpace=wrap;html=1;fillColor=#fad7ac;strokeColor=#b46504;" parent="1" vertex="1">
          <mxGeometry x="3117.5" y="-420" width="120" height="60" as="geometry" />
        </mxCell>
        <mxCell id="GukLXgy1mVPKZHK0rCK0-220" style="edgeStyle=orthogonalEdgeStyle;rounded=0;orthogonalLoop=1;jettySize=auto;html=1;exitX=0.5;exitY=1;exitDx=0;exitDy=0;" parent="1" source="GukLXgy1mVPKZHK0rCK0-221" target="GukLXgy1mVPKZHK0rCK0-227" edge="1">
          <mxGeometry relative="1" as="geometry" />
        </mxCell>
        <mxCell id="GukLXgy1mVPKZHK0rCK0-221" value="VISUALIZAR LISTA DE LOTES&amp;nbsp;" style="rounded=0;whiteSpace=wrap;html=1;fillColor=#fad7ac;strokeColor=#b46504;" parent="1" vertex="1">
          <mxGeometry x="3117.5" y="-330" width="120" height="60" as="geometry" />
        </mxCell>
        <mxCell id="GukLXgy1mVPKZHK0rCK0-224" style="edgeStyle=orthogonalEdgeStyle;rounded=0;orthogonalLoop=1;jettySize=auto;html=1;exitX=1;exitY=0.5;exitDx=0;exitDy=0;exitPerimeter=0;" parent="1" source="GukLXgy1mVPKZHK0rCK0-227" target="GukLXgy1mVPKZHK0rCK0-232" edge="1">
          <mxGeometry relative="1" as="geometry" />
        </mxCell>
        <mxCell id="GukLXgy1mVPKZHK0rCK0-363" value="NÃO" style="edgeLabel;html=1;align=center;verticalAlign=middle;resizable=0;points=[];" parent="GukLXgy1mVPKZHK0rCK0-224" vertex="1" connectable="0">
          <mxGeometry x="-0.3962" y="1" relative="1" as="geometry">
            <mxPoint as="offset" />
          </mxGeometry>
        </mxCell>
        <mxCell id="GukLXgy1mVPKZHK0rCK0-352" style="edgeStyle=orthogonalEdgeStyle;rounded=0;orthogonalLoop=1;jettySize=auto;html=1;" parent="1" source="GukLXgy1mVPKZHK0rCK0-227" target="GukLXgy1mVPKZHK0rCK0-230" edge="1">
          <mxGeometry relative="1" as="geometry" />
        </mxCell>
        <mxCell id="GukLXgy1mVPKZHK0rCK0-361" value="SIM" style="edgeLabel;html=1;align=center;verticalAlign=middle;resizable=0;points=[];" parent="GukLXgy1mVPKZHK0rCK0-352" vertex="1" connectable="0">
          <mxGeometry x="-0.625" y="-1" relative="1" as="geometry">
            <mxPoint as="offset" />
          </mxGeometry>
        </mxCell>
        <mxCell id="GukLXgy1mVPKZHK0rCK0-227" value="LOTE APARECEU&lt;div&gt;&amp;nbsp;NA TELA&amp;nbsp;&lt;/div&gt;" style="strokeWidth=2;html=1;shape=mxgraph.flowchart.decision;whiteSpace=wrap;fillColor=#b0e3e6;strokeColor=#0e8088;" parent="1" vertex="1">
          <mxGeometry x="3100" y="-250" width="155" height="90" as="geometry" />
        </mxCell>
        <mxCell id="GukLXgy1mVPKZHK0rCK0-356" style="edgeStyle=orthogonalEdgeStyle;rounded=0;orthogonalLoop=1;jettySize=auto;html=1;exitX=0.5;exitY=1;exitDx=0;exitDy=0;entryX=0.5;entryY=0;entryDx=0;entryDy=0;" parent="1" source="GukLXgy1mVPKZHK0rCK0-230" target="GukLXgy1mVPKZHK0rCK0-240" edge="1">
          <mxGeometry relative="1" as="geometry" />
        </mxCell>
        <mxCell id="GukLXgy1mVPKZHK0rCK0-230" value="CLICAR NO OLHO VISUALIZAR DO LOTE DESEJADO" style="rounded=0;whiteSpace=wrap;html=1;fillColor=#fad7ac;strokeColor=#b46504;" parent="1" vertex="1">
          <mxGeometry x="3117.5" y="-80" width="120" height="60" as="geometry" />
        </mxCell>
        <mxCell id="GukLXgy1mVPKZHK0rCK0-354" style="edgeStyle=orthogonalEdgeStyle;rounded=0;orthogonalLoop=1;jettySize=auto;html=1;exitX=1;exitY=0.5;exitDx=0;exitDy=0;" parent="1" source="GukLXgy1mVPKZHK0rCK0-232" target="GukLXgy1mVPKZHK0rCK0-235" edge="1">
          <mxGeometry relative="1" as="geometry" />
        </mxCell>
        <mxCell id="GukLXgy1mVPKZHK0rCK0-232" value="PESQUISAR LOTE QUE DESEJA" style="rounded=0;whiteSpace=wrap;html=1;fillColor=#fad7ac;strokeColor=#b46504;" parent="1" vertex="1">
          <mxGeometry x="3308" y="-235" width="120" height="60" as="geometry" />
        </mxCell>
        <mxCell id="GukLXgy1mVPKZHK0rCK0-355" style="edgeStyle=orthogonalEdgeStyle;rounded=0;orthogonalLoop=1;jettySize=auto;html=1;exitX=0.5;exitY=0;exitDx=0;exitDy=0;exitPerimeter=0;entryX=0.5;entryY=1;entryDx=0;entryDy=0;" parent="1" source="GukLXgy1mVPKZHK0rCK0-235" target="GukLXgy1mVPKZHK0rCK0-237" edge="1">
          <mxGeometry relative="1" as="geometry" />
        </mxCell>
        <mxCell id="GukLXgy1mVPKZHK0rCK0-365" value="SIM" style="edgeLabel;html=1;align=center;verticalAlign=middle;resizable=0;points=[];" parent="GukLXgy1mVPKZHK0rCK0-355" vertex="1" connectable="0">
          <mxGeometry x="-0.2" relative="1" as="geometry">
            <mxPoint x="1" as="offset" />
          </mxGeometry>
        </mxCell>
        <mxCell id="GukLXgy1mVPKZHK0rCK0-358" style="edgeStyle=orthogonalEdgeStyle;rounded=0;orthogonalLoop=1;jettySize=auto;html=1;exitX=0.5;exitY=1;exitDx=0;exitDy=0;exitPerimeter=0;entryX=1;entryY=0.5;entryDx=0;entryDy=0;" parent="1" source="GukLXgy1mVPKZHK0rCK0-235" target="GukLXgy1mVPKZHK0rCK0-230" edge="1">
          <mxGeometry relative="1" as="geometry" />
        </mxCell>
        <mxCell id="GukLXgy1mVPKZHK0rCK0-364" value="SIM" style="edgeLabel;html=1;align=center;verticalAlign=middle;resizable=0;points=[];" parent="GukLXgy1mVPKZHK0rCK0-358" vertex="1" connectable="0">
          <mxGeometry x="-0.706" y="-1" relative="1" as="geometry">
            <mxPoint as="offset" />
          </mxGeometry>
        </mxCell>
        <mxCell id="GukLXgy1mVPKZHK0rCK0-235" value="FOI ENCONTRADO&amp;nbsp;" style="strokeWidth=2;html=1;shape=mxgraph.flowchart.decision;whiteSpace=wrap;fillColor=#b0e3e6;strokeColor=#0e8088;" parent="1" vertex="1">
          <mxGeometry x="3465" y="-250" width="155" height="90" as="geometry" />
        </mxCell>
        <mxCell id="GukLXgy1mVPKZHK0rCK0-357" style="edgeStyle=orthogonalEdgeStyle;rounded=0;orthogonalLoop=1;jettySize=auto;html=1;entryX=1;entryY=0.5;entryDx=0;entryDy=0;" parent="1" source="GukLXgy1mVPKZHK0rCK0-237" target="GukLXgy1mVPKZHK0rCK0-240" edge="1">
          <mxGeometry relative="1" as="geometry">
            <Array as="points">
              <mxPoint x="3690" y="-330" />
              <mxPoint x="3690" y="70" />
            </Array>
          </mxGeometry>
        </mxCell>
        <mxCell id="GukLXgy1mVPKZHK0rCK0-237" value="IR PARA TELA DE CADASTRO LOTE" style="rounded=0;whiteSpace=wrap;html=1;fillColor=#fad7ac;strokeColor=#b46504;" parent="1" vertex="1">
          <mxGeometry x="3481.25" y="-360" width="122.5" height="60" as="geometry" />
        </mxCell>
        <mxCell id="GukLXgy1mVPKZHK0rCK0-240" value="FIM" style="ellipse;whiteSpace=wrap;html=1;fillColor=#e1d5e7;strokeColor=#9673a6;" parent="1" vertex="1">
          <mxGeometry x="3117.5" y="30" width="120" height="80" as="geometry" />
        </mxCell>
        <mxCell id="GukLXgy1mVPKZHK0rCK0-241" style="edgeStyle=orthogonalEdgeStyle;rounded=0;orthogonalLoop=1;jettySize=auto;html=1;exitX=0.5;exitY=1;exitDx=0;exitDy=0;entryX=0.5;entryY=0;entryDx=0;entryDy=0;" parent="1" source="GukLXgy1mVPKZHK0rCK0-242" target="GukLXgy1mVPKZHK0rCK0-251" edge="1">
          <mxGeometry relative="1" as="geometry" />
        </mxCell>
        <mxCell id="GukLXgy1mVPKZHK0rCK0-242" value="INÍCIO" style="ellipse;whiteSpace=wrap;html=1;fillColor=#d0cee2;strokeColor=#56517e;" parent="1" vertex="1">
          <mxGeometry x="3837.5" y="-700" width="120" height="80" as="geometry" />
        </mxCell>
        <mxCell id="GukLXgy1mVPKZHK0rCK0-388" style="edgeStyle=orthogonalEdgeStyle;rounded=0;orthogonalLoop=1;jettySize=auto;html=1;exitX=1;exitY=0.5;exitDx=0;exitDy=0;exitPerimeter=0;" parent="1" source="GukLXgy1mVPKZHK0rCK0-247" target="GukLXgy1mVPKZHK0rCK0-384" edge="1">
          <mxGeometry relative="1" as="geometry" />
        </mxCell>
        <mxCell id="GukLXgy1mVPKZHK0rCK0-391" value="SIM" style="edgeLabel;html=1;align=center;verticalAlign=middle;resizable=0;points=[];" parent="GukLXgy1mVPKZHK0rCK0-388" vertex="1" connectable="0">
          <mxGeometry x="-0.2" y="1" relative="1" as="geometry">
            <mxPoint as="offset" />
          </mxGeometry>
        </mxCell>
        <mxCell id="GukLXgy1mVPKZHK0rCK0-392" style="edgeStyle=orthogonalEdgeStyle;rounded=0;orthogonalLoop=1;jettySize=auto;html=1;exitX=0.5;exitY=1;exitDx=0;exitDy=0;exitPerimeter=0;" parent="1" source="GukLXgy1mVPKZHK0rCK0-247" target="GukLXgy1mVPKZHK0rCK0-259" edge="1">
          <mxGeometry relative="1" as="geometry" />
        </mxCell>
        <mxCell id="GukLXgy1mVPKZHK0rCK0-393" value="NÃO" style="edgeLabel;html=1;align=center;verticalAlign=middle;resizable=0;points=[];" parent="GukLXgy1mVPKZHK0rCK0-392" vertex="1" connectable="0">
          <mxGeometry x="-0.2079" y="-1" relative="1" as="geometry">
            <mxPoint as="offset" />
          </mxGeometry>
        </mxCell>
        <mxCell id="GukLXgy1mVPKZHK0rCK0-247" value="LOTE EXISTE&amp;nbsp;" style="strokeWidth=2;html=1;shape=mxgraph.flowchart.decision;whiteSpace=wrap;fillColor=#b0e3e6;strokeColor=#0e8088;" parent="1" vertex="1">
          <mxGeometry x="3813.75" y="-10" width="166.25" height="90" as="geometry" />
        </mxCell>
        <mxCell id="GukLXgy1mVPKZHK0rCK0-249" value="APARECER NA TELA PARA ENCAMINHAR PARA CADASTRAR&amp;nbsp; CLIENTE" style="rounded=0;whiteSpace=wrap;html=1;fillColor=#fad7ac;strokeColor=#b46504;" parent="1" vertex="1">
          <mxGeometry x="4030" y="-227.5" width="130" height="65" as="geometry" />
        </mxCell>
        <mxCell id="GukLXgy1mVPKZHK0rCK0-250" style="edgeStyle=orthogonalEdgeStyle;rounded=0;orthogonalLoop=1;jettySize=auto;html=1;exitX=0.5;exitY=1;exitDx=0;exitDy=0;entryX=0.5;entryY=0;entryDx=0;entryDy=0;" parent="1" source="GukLXgy1mVPKZHK0rCK0-251" target="GukLXgy1mVPKZHK0rCK0-253" edge="1">
          <mxGeometry relative="1" as="geometry" />
        </mxCell>
        <mxCell id="GukLXgy1mVPKZHK0rCK0-251" value="ABRIR A TELA INICIAL&amp;nbsp;" style="rounded=0;whiteSpace=wrap;html=1;fillColor=#fad7ac;strokeColor=#b46504;" parent="1" vertex="1">
          <mxGeometry x="3837.5" y="-594" width="120" height="60" as="geometry" />
        </mxCell>
        <mxCell id="GukLXgy1mVPKZHK0rCK0-252" style="edgeStyle=orthogonalEdgeStyle;rounded=0;orthogonalLoop=1;jettySize=auto;html=1;exitX=0.5;exitY=1;exitDx=0;exitDy=0;" parent="1" source="GukLXgy1mVPKZHK0rCK0-253" target="GukLXgy1mVPKZHK0rCK0-255" edge="1">
          <mxGeometry relative="1" as="geometry" />
        </mxCell>
        <mxCell id="GukLXgy1mVPKZHK0rCK0-253" value="CLICAR NO ÍCONE CADASTRAR" style="rounded=0;whiteSpace=wrap;html=1;fillColor=#fad7ac;strokeColor=#b46504;" parent="1" vertex="1">
          <mxGeometry x="3837.5" y="-510" width="120" height="60" as="geometry" />
        </mxCell>
        <mxCell id="GukLXgy1mVPKZHK0rCK0-254" style="edgeStyle=orthogonalEdgeStyle;rounded=0;orthogonalLoop=1;jettySize=auto;html=1;exitX=0.5;exitY=1;exitDx=0;exitDy=0;" parent="1" source="GukLXgy1mVPKZHK0rCK0-255" target="GukLXgy1mVPKZHK0rCK0-257" edge="1">
          <mxGeometry relative="1" as="geometry" />
        </mxCell>
        <mxCell id="GukLXgy1mVPKZHK0rCK0-255" value="SELECIONAR LOTE" style="rounded=0;whiteSpace=wrap;html=1;fillColor=#fad7ac;strokeColor=#b46504;" parent="1" vertex="1">
          <mxGeometry x="3837.5" y="-420" width="120" height="60" as="geometry" />
        </mxCell>
        <mxCell id="GukLXgy1mVPKZHK0rCK0-257" value="EDITAR COM AS INFORMAÇÕES DO LOTE" style="rounded=0;whiteSpace=wrap;html=1;fillColor=#fad7ac;strokeColor=#b46504;" parent="1" vertex="1">
          <mxGeometry x="3837.5" y="-330" width="120" height="60" as="geometry" />
        </mxCell>
        <mxCell id="GukLXgy1mVPKZHK0rCK0-383" style="edgeStyle=orthogonalEdgeStyle;rounded=0;orthogonalLoop=1;jettySize=auto;html=1;exitX=0.5;exitY=1;exitDx=0;exitDy=0;" parent="1" source="GukLXgy1mVPKZHK0rCK0-259" target="GukLXgy1mVPKZHK0rCK0-260" edge="1">
          <mxGeometry relative="1" as="geometry" />
        </mxCell>
        <mxCell id="GukLXgy1mVPKZHK0rCK0-259" value="CONCLUIR CADASTRO DE LOTE&amp;nbsp;" style="rounded=0;whiteSpace=wrap;html=1;fillColor=#fad7ac;strokeColor=#b46504;" parent="1" vertex="1">
          <mxGeometry x="3837.5" y="140" width="120" height="60" as="geometry" />
        </mxCell>
        <mxCell id="GukLXgy1mVPKZHK0rCK0-260" value="FIM&amp;nbsp;" style="ellipse;whiteSpace=wrap;html=1;fillColor=#e1d5e7;strokeColor=#9673a6;" parent="1" vertex="1">
          <mxGeometry x="3837.5" y="240" width="120" height="80" as="geometry" />
        </mxCell>
        <mxCell id="GukLXgy1mVPKZHK0rCK0-261" style="edgeStyle=orthogonalEdgeStyle;rounded=0;orthogonalLoop=1;jettySize=auto;html=1;exitX=0.5;exitY=1;exitDx=0;exitDy=0;entryX=0.5;entryY=0;entryDx=0;entryDy=0;" parent="1" target="GukLXgy1mVPKZHK0rCK0-263" edge="1">
          <mxGeometry relative="1" as="geometry">
            <mxPoint x="4377.5" y="-580" as="sourcePoint" />
          </mxGeometry>
        </mxCell>
        <mxCell id="GukLXgy1mVPKZHK0rCK0-262" style="edgeStyle=orthogonalEdgeStyle;rounded=0;orthogonalLoop=1;jettySize=auto;html=1;exitX=0.5;exitY=1;exitDx=0;exitDy=0;entryX=0.5;entryY=0;entryDx=0;entryDy=0;" parent="1" source="GukLXgy1mVPKZHK0rCK0-263" target="GukLXgy1mVPKZHK0rCK0-265" edge="1">
          <mxGeometry relative="1" as="geometry" />
        </mxCell>
        <mxCell id="GukLXgy1mVPKZHK0rCK0-263" value="ABRIR A TELA INICIAL&amp;nbsp;" style="rounded=0;whiteSpace=wrap;html=1;fillColor=#fad7ac;strokeColor=#b46504;" parent="1" vertex="1">
          <mxGeometry x="4317.5" y="-554" width="120" height="60" as="geometry" />
        </mxCell>
        <mxCell id="GukLXgy1mVPKZHK0rCK0-264" style="edgeStyle=orthogonalEdgeStyle;rounded=0;orthogonalLoop=1;jettySize=auto;html=1;exitX=0.5;exitY=1;exitDx=0;exitDy=0;" parent="1" source="GukLXgy1mVPKZHK0rCK0-265" target="GukLXgy1mVPKZHK0rCK0-267" edge="1">
          <mxGeometry relative="1" as="geometry" />
        </mxCell>
        <mxCell id="GukLXgy1mVPKZHK0rCK0-265" value="CLICAR NO ÍCONE EDITAR" style="rounded=0;whiteSpace=wrap;html=1;fillColor=#fad7ac;strokeColor=#b46504;" parent="1" vertex="1">
          <mxGeometry x="4317.5" y="-470" width="120" height="60" as="geometry" />
        </mxCell>
        <mxCell id="GukLXgy1mVPKZHK0rCK0-266" style="edgeStyle=orthogonalEdgeStyle;rounded=0;orthogonalLoop=1;jettySize=auto;html=1;exitX=0.5;exitY=1;exitDx=0;exitDy=0;" parent="1" source="GukLXgy1mVPKZHK0rCK0-267" target="GukLXgy1mVPKZHK0rCK0-269" edge="1">
          <mxGeometry relative="1" as="geometry" />
        </mxCell>
        <mxCell id="GukLXgy1mVPKZHK0rCK0-267" value="SELECIONAR LOTE" style="rounded=0;whiteSpace=wrap;html=1;fillColor=#fad7ac;strokeColor=#b46504;" parent="1" vertex="1">
          <mxGeometry x="4317.5" y="-380" width="120" height="60" as="geometry" />
        </mxCell>
        <mxCell id="GukLXgy1mVPKZHK0rCK0-268" style="edgeStyle=orthogonalEdgeStyle;rounded=0;orthogonalLoop=1;jettySize=auto;html=1;exitX=0.5;exitY=1;exitDx=0;exitDy=0;" parent="1" source="GukLXgy1mVPKZHK0rCK0-269" target="GukLXgy1mVPKZHK0rCK0-280" edge="1">
          <mxGeometry relative="1" as="geometry" />
        </mxCell>
        <mxCell id="GukLXgy1mVPKZHK0rCK0-269" value="VISUALIZAR LISTA DE LOTES&amp;nbsp;" style="rounded=0;whiteSpace=wrap;html=1;fillColor=#fad7ac;strokeColor=#b46504;" parent="1" vertex="1">
          <mxGeometry x="4317.5" y="-280" width="120" height="60" as="geometry" />
        </mxCell>
        <mxCell id="GukLXgy1mVPKZHK0rCK0-270" value="INÍCIO" style="ellipse;whiteSpace=wrap;html=1;fillColor=#d0cee2;strokeColor=#56517e;" parent="1" vertex="1">
          <mxGeometry x="4317.5" y="-660" width="120" height="80" as="geometry" />
        </mxCell>
        <mxCell id="GukLXgy1mVPKZHK0rCK0-271" style="edgeStyle=orthogonalEdgeStyle;rounded=0;orthogonalLoop=1;jettySize=auto;html=1;exitX=0.5;exitY=1;exitDx=0;exitDy=0;" parent="1" source="GukLXgy1mVPKZHK0rCK0-272" target="GukLXgy1mVPKZHK0rCK0-275" edge="1">
          <mxGeometry relative="1" as="geometry" />
        </mxCell>
        <mxCell id="GukLXgy1mVPKZHK0rCK0-272" value="CLICAR NO LÁPIS PARA EDITAR" style="rounded=0;whiteSpace=wrap;html=1;fillColor=#fad7ac;strokeColor=#b46504;" parent="1" vertex="1">
          <mxGeometry x="4317.5" y="-50" width="120" height="60" as="geometry" />
        </mxCell>
        <mxCell id="GukLXgy1mVPKZHK0rCK0-273" style="edgeStyle=orthogonalEdgeStyle;rounded=0;orthogonalLoop=1;jettySize=auto;html=1;exitX=1;exitY=0.5;exitDx=0;exitDy=0;" parent="1" source="GukLXgy1mVPKZHK0rCK0-274" target="GukLXgy1mVPKZHK0rCK0-285" edge="1">
          <mxGeometry relative="1" as="geometry" />
        </mxCell>
        <mxCell id="GukLXgy1mVPKZHK0rCK0-274" value="PESQUISAR LOTE QUE DESEJA" style="rounded=0;whiteSpace=wrap;html=1;fillColor=#fad7ac;strokeColor=#b46504;" parent="1" vertex="1">
          <mxGeometry x="4497.5" y="-165" width="120" height="60" as="geometry" />
        </mxCell>
        <mxCell id="GukLXgy1mVPKZHK0rCK0-275" value="FIM" style="ellipse;whiteSpace=wrap;html=1;fillColor=#e1d5e7;strokeColor=#9673a6;" parent="1" vertex="1">
          <mxGeometry x="4317.5" y="60" width="120" height="80" as="geometry" />
        </mxCell>
        <mxCell id="GukLXgy1mVPKZHK0rCK0-276" style="edgeStyle=orthogonalEdgeStyle;rounded=0;orthogonalLoop=1;jettySize=auto;html=1;exitX=0.5;exitY=1;exitDx=0;exitDy=0;exitPerimeter=0;" parent="1" source="GukLXgy1mVPKZHK0rCK0-280" target="GukLXgy1mVPKZHK0rCK0-272" edge="1">
          <mxGeometry relative="1" as="geometry" />
        </mxCell>
        <mxCell id="GukLXgy1mVPKZHK0rCK0-277" value="SIM" style="edgeLabel;html=1;align=center;verticalAlign=middle;resizable=0;points=[];" parent="GukLXgy1mVPKZHK0rCK0-276" vertex="1" connectable="0">
          <mxGeometry x="-0.55" relative="1" as="geometry">
            <mxPoint as="offset" />
          </mxGeometry>
        </mxCell>
        <mxCell id="GukLXgy1mVPKZHK0rCK0-278" style="edgeStyle=orthogonalEdgeStyle;rounded=0;orthogonalLoop=1;jettySize=auto;html=1;exitX=1;exitY=0.5;exitDx=0;exitDy=0;exitPerimeter=0;" parent="1" source="GukLXgy1mVPKZHK0rCK0-280" target="GukLXgy1mVPKZHK0rCK0-274" edge="1">
          <mxGeometry relative="1" as="geometry" />
        </mxCell>
        <mxCell id="GukLXgy1mVPKZHK0rCK0-279" value="NÃO" style="edgeLabel;html=1;align=center;verticalAlign=middle;resizable=0;points=[];" parent="GukLXgy1mVPKZHK0rCK0-278" vertex="1" connectable="0">
          <mxGeometry x="-0.6" y="1" relative="1" as="geometry">
            <mxPoint as="offset" />
          </mxGeometry>
        </mxCell>
        <mxCell id="GukLXgy1mVPKZHK0rCK0-280" value="LOTE APARECEU&lt;div&gt;&amp;nbsp;NA TELA&amp;nbsp;&lt;/div&gt;" style="strokeWidth=2;html=1;shape=mxgraph.flowchart.decision;whiteSpace=wrap;fillColor=#b0e3e6;strokeColor=#0e8088;" parent="1" vertex="1">
          <mxGeometry x="4300" y="-180" width="155" height="90" as="geometry" />
        </mxCell>
        <mxCell id="GukLXgy1mVPKZHK0rCK0-281" value="" style="edgeStyle=orthogonalEdgeStyle;rounded=0;orthogonalLoop=1;jettySize=auto;html=1;" parent="1" source="GukLXgy1mVPKZHK0rCK0-285" target="GukLXgy1mVPKZHK0rCK0-287" edge="1">
          <mxGeometry relative="1" as="geometry" />
        </mxCell>
        <mxCell id="GukLXgy1mVPKZHK0rCK0-282" value="NÃO" style="edgeLabel;html=1;align=center;verticalAlign=middle;resizable=0;points=[];" parent="GukLXgy1mVPKZHK0rCK0-281" vertex="1" connectable="0">
          <mxGeometry x="-0.1022" y="4" relative="1" as="geometry">
            <mxPoint x="1" as="offset" />
          </mxGeometry>
        </mxCell>
        <mxCell id="GukLXgy1mVPKZHK0rCK0-283" style="edgeStyle=orthogonalEdgeStyle;rounded=0;orthogonalLoop=1;jettySize=auto;html=1;exitX=1;exitY=0.5;exitDx=0;exitDy=0;exitPerimeter=0;entryX=1;entryY=0.5;entryDx=0;entryDy=0;" parent="1" source="GukLXgy1mVPKZHK0rCK0-285" target="GukLXgy1mVPKZHK0rCK0-272" edge="1">
          <mxGeometry relative="1" as="geometry" />
        </mxCell>
        <mxCell id="GukLXgy1mVPKZHK0rCK0-284" value="SIM" style="edgeLabel;html=1;align=center;verticalAlign=middle;resizable=0;points=[];" parent="GukLXgy1mVPKZHK0rCK0-283" vertex="1" connectable="0">
          <mxGeometry x="-0.7438" y="-2" relative="1" as="geometry">
            <mxPoint as="offset" />
          </mxGeometry>
        </mxCell>
        <mxCell id="GukLXgy1mVPKZHK0rCK0-285" value="FOI ENCONTRADO&amp;nbsp;" style="strokeWidth=2;html=1;shape=mxgraph.flowchart.decision;whiteSpace=wrap;fillColor=#b0e3e6;strokeColor=#0e8088;" parent="1" vertex="1">
          <mxGeometry x="4640" y="-180" width="150" height="90" as="geometry" />
        </mxCell>
        <mxCell id="GukLXgy1mVPKZHK0rCK0-286" style="edgeStyle=orthogonalEdgeStyle;rounded=0;orthogonalLoop=1;jettySize=auto;html=1;exitX=1;exitY=0.5;exitDx=0;exitDy=0;entryX=1;entryY=0.5;entryDx=0;entryDy=0;" parent="1" source="GukLXgy1mVPKZHK0rCK0-287" target="GukLXgy1mVPKZHK0rCK0-275" edge="1">
          <mxGeometry relative="1" as="geometry">
            <Array as="points">
              <mxPoint x="4847.5" y="-250" />
              <mxPoint x="4847.5" y="100" />
            </Array>
          </mxGeometry>
        </mxCell>
        <mxCell id="GukLXgy1mVPKZHK0rCK0-287" value="IR PARA TELA DE CADASTRO LOTE" style="rounded=0;whiteSpace=wrap;html=1;fillColor=#fad7ac;strokeColor=#b46504;" parent="1" vertex="1">
          <mxGeometry x="4653.75" y="-280" width="122.5" height="60" as="geometry" />
        </mxCell>
        <mxCell id="GukLXgy1mVPKZHK0rCK0-288" style="edgeStyle=orthogonalEdgeStyle;rounded=0;orthogonalLoop=1;jettySize=auto;html=1;exitX=0.5;exitY=1;exitDx=0;exitDy=0;entryX=0.5;entryY=0;entryDx=0;entryDy=0;" parent="1" target="GukLXgy1mVPKZHK0rCK0-290" edge="1">
          <mxGeometry relative="1" as="geometry">
            <mxPoint x="4965" y="-580" as="sourcePoint" />
          </mxGeometry>
        </mxCell>
        <mxCell id="GukLXgy1mVPKZHK0rCK0-289" style="edgeStyle=orthogonalEdgeStyle;rounded=0;orthogonalLoop=1;jettySize=auto;html=1;exitX=0.5;exitY=1;exitDx=0;exitDy=0;entryX=0.5;entryY=0;entryDx=0;entryDy=0;" parent="1" source="GukLXgy1mVPKZHK0rCK0-290" target="GukLXgy1mVPKZHK0rCK0-292" edge="1">
          <mxGeometry relative="1" as="geometry" />
        </mxCell>
        <mxCell id="GukLXgy1mVPKZHK0rCK0-290" value="ABRIR A TELA INICIAL&amp;nbsp;" style="rounded=0;whiteSpace=wrap;html=1;fillColor=#fad7ac;strokeColor=#b46504;" parent="1" vertex="1">
          <mxGeometry x="4905" y="-554" width="120" height="60" as="geometry" />
        </mxCell>
        <mxCell id="GukLXgy1mVPKZHK0rCK0-291" style="edgeStyle=orthogonalEdgeStyle;rounded=0;orthogonalLoop=1;jettySize=auto;html=1;exitX=0.5;exitY=1;exitDx=0;exitDy=0;" parent="1" source="GukLXgy1mVPKZHK0rCK0-292" target="GukLXgy1mVPKZHK0rCK0-294" edge="1">
          <mxGeometry relative="1" as="geometry" />
        </mxCell>
        <mxCell id="GukLXgy1mVPKZHK0rCK0-292" value="CLICAR NO ÍCONE EXCLUIR" style="rounded=0;whiteSpace=wrap;html=1;fillColor=#fad7ac;strokeColor=#b46504;" parent="1" vertex="1">
          <mxGeometry x="4905" y="-470" width="120" height="60" as="geometry" />
        </mxCell>
        <mxCell id="GukLXgy1mVPKZHK0rCK0-293" style="edgeStyle=orthogonalEdgeStyle;rounded=0;orthogonalLoop=1;jettySize=auto;html=1;exitX=0.5;exitY=1;exitDx=0;exitDy=0;" parent="1" source="GukLXgy1mVPKZHK0rCK0-294" target="GukLXgy1mVPKZHK0rCK0-296" edge="1">
          <mxGeometry relative="1" as="geometry" />
        </mxCell>
        <mxCell id="GukLXgy1mVPKZHK0rCK0-294" value="SELECIONAR LOTE" style="rounded=0;whiteSpace=wrap;html=1;fillColor=#fad7ac;strokeColor=#b46504;" parent="1" vertex="1">
          <mxGeometry x="4905" y="-380" width="120" height="60" as="geometry" />
        </mxCell>
        <mxCell id="GukLXgy1mVPKZHK0rCK0-295" style="edgeStyle=orthogonalEdgeStyle;rounded=0;orthogonalLoop=1;jettySize=auto;html=1;exitX=0.5;exitY=1;exitDx=0;exitDy=0;" parent="1" source="GukLXgy1mVPKZHK0rCK0-296" target="GukLXgy1mVPKZHK0rCK0-306" edge="1">
          <mxGeometry relative="1" as="geometry" />
        </mxCell>
        <mxCell id="GukLXgy1mVPKZHK0rCK0-296" value="VISUALIZAR LISTA DE LOTES" style="rounded=0;whiteSpace=wrap;html=1;fillColor=#fad7ac;strokeColor=#b46504;" parent="1" vertex="1">
          <mxGeometry x="4905" y="-280" width="120" height="60" as="geometry" />
        </mxCell>
        <mxCell id="GukLXgy1mVPKZHK0rCK0-297" value="INÍCIO" style="ellipse;whiteSpace=wrap;html=1;fillColor=#d0cee2;strokeColor=#56517e;" parent="1" vertex="1">
          <mxGeometry x="4905" y="-660" width="120" height="80" as="geometry" />
        </mxCell>
        <mxCell id="GukLXgy1mVPKZHK0rCK0-298" style="edgeStyle=orthogonalEdgeStyle;rounded=0;orthogonalLoop=1;jettySize=auto;html=1;exitX=0.5;exitY=1;exitDx=0;exitDy=0;" parent="1" source="GukLXgy1mVPKZHK0rCK0-299" target="GukLXgy1mVPKZHK0rCK0-315" edge="1">
          <mxGeometry relative="1" as="geometry" />
        </mxCell>
        <mxCell id="GukLXgy1mVPKZHK0rCK0-299" value="CLICAR NO LIXO PARA EXCLUIR" style="rounded=0;whiteSpace=wrap;html=1;fillColor=#fad7ac;strokeColor=#b46504;" parent="1" vertex="1">
          <mxGeometry x="4905" y="-50" width="120" height="60" as="geometry" />
        </mxCell>
        <mxCell id="GukLXgy1mVPKZHK0rCK0-300" style="edgeStyle=orthogonalEdgeStyle;rounded=0;orthogonalLoop=1;jettySize=auto;html=1;exitX=1;exitY=0.5;exitDx=0;exitDy=0;" parent="1" source="GukLXgy1mVPKZHK0rCK0-301" target="GukLXgy1mVPKZHK0rCK0-311" edge="1">
          <mxGeometry relative="1" as="geometry" />
        </mxCell>
        <mxCell id="GukLXgy1mVPKZHK0rCK0-301" value="PESQUISAR LOTE QUE DESEJA" style="rounded=0;whiteSpace=wrap;html=1;fillColor=#fad7ac;strokeColor=#b46504;" parent="1" vertex="1">
          <mxGeometry x="5085" y="-165" width="120" height="60" as="geometry" />
        </mxCell>
        <mxCell id="GukLXgy1mVPKZHK0rCK0-302" style="edgeStyle=orthogonalEdgeStyle;rounded=0;orthogonalLoop=1;jettySize=auto;html=1;exitX=0.5;exitY=1;exitDx=0;exitDy=0;exitPerimeter=0;" parent="1" source="GukLXgy1mVPKZHK0rCK0-306" target="GukLXgy1mVPKZHK0rCK0-299" edge="1">
          <mxGeometry relative="1" as="geometry" />
        </mxCell>
        <mxCell id="GukLXgy1mVPKZHK0rCK0-303" value="SIM" style="edgeLabel;html=1;align=center;verticalAlign=middle;resizable=0;points=[];" parent="GukLXgy1mVPKZHK0rCK0-302" vertex="1" connectable="0">
          <mxGeometry x="-0.55" relative="1" as="geometry">
            <mxPoint as="offset" />
          </mxGeometry>
        </mxCell>
        <mxCell id="GukLXgy1mVPKZHK0rCK0-304" style="edgeStyle=orthogonalEdgeStyle;rounded=0;orthogonalLoop=1;jettySize=auto;html=1;exitX=1;exitY=0.5;exitDx=0;exitDy=0;exitPerimeter=0;" parent="1" source="GukLXgy1mVPKZHK0rCK0-306" target="GukLXgy1mVPKZHK0rCK0-301" edge="1">
          <mxGeometry relative="1" as="geometry" />
        </mxCell>
        <mxCell id="GukLXgy1mVPKZHK0rCK0-305" value="NÃO" style="edgeLabel;html=1;align=center;verticalAlign=middle;resizable=0;points=[];" parent="GukLXgy1mVPKZHK0rCK0-304" vertex="1" connectable="0">
          <mxGeometry x="-0.6" y="1" relative="1" as="geometry">
            <mxPoint as="offset" />
          </mxGeometry>
        </mxCell>
        <mxCell id="GukLXgy1mVPKZHK0rCK0-306" value="LOTE APARECEU&lt;div&gt;&amp;nbsp;NA TELA&amp;nbsp;&lt;/div&gt;" style="strokeWidth=2;html=1;shape=mxgraph.flowchart.decision;whiteSpace=wrap;fillColor=#b0e3e6;strokeColor=#0e8088;" parent="1" vertex="1">
          <mxGeometry x="4887.5" y="-180" width="155" height="90" as="geometry" />
        </mxCell>
        <mxCell id="GukLXgy1mVPKZHK0rCK0-307" value="" style="edgeStyle=orthogonalEdgeStyle;rounded=0;orthogonalLoop=1;jettySize=auto;html=1;" parent="1" source="GukLXgy1mVPKZHK0rCK0-311" target="GukLXgy1mVPKZHK0rCK0-313" edge="1">
          <mxGeometry relative="1" as="geometry" />
        </mxCell>
        <mxCell id="GukLXgy1mVPKZHK0rCK0-308" value="NÃO" style="edgeLabel;html=1;align=center;verticalAlign=middle;resizable=0;points=[];" parent="GukLXgy1mVPKZHK0rCK0-307" vertex="1" connectable="0">
          <mxGeometry x="-0.1022" y="4" relative="1" as="geometry">
            <mxPoint x="1" as="offset" />
          </mxGeometry>
        </mxCell>
        <mxCell id="GukLXgy1mVPKZHK0rCK0-309" style="edgeStyle=orthogonalEdgeStyle;rounded=0;orthogonalLoop=1;jettySize=auto;html=1;exitX=1;exitY=0.5;exitDx=0;exitDy=0;exitPerimeter=0;entryX=1;entryY=0.5;entryDx=0;entryDy=0;" parent="1" source="GukLXgy1mVPKZHK0rCK0-311" target="GukLXgy1mVPKZHK0rCK0-299" edge="1">
          <mxGeometry relative="1" as="geometry" />
        </mxCell>
        <mxCell id="GukLXgy1mVPKZHK0rCK0-310" value="SIM" style="edgeLabel;html=1;align=center;verticalAlign=middle;resizable=0;points=[];" parent="GukLXgy1mVPKZHK0rCK0-309" vertex="1" connectable="0">
          <mxGeometry x="-0.7438" y="-2" relative="1" as="geometry">
            <mxPoint as="offset" />
          </mxGeometry>
        </mxCell>
        <mxCell id="GukLXgy1mVPKZHK0rCK0-311" value="FOI ENCONTRADO&amp;nbsp;" style="strokeWidth=2;html=1;shape=mxgraph.flowchart.decision;whiteSpace=wrap;fillColor=#b0e3e6;strokeColor=#0e8088;" parent="1" vertex="1">
          <mxGeometry x="5227.5" y="-180" width="150" height="90" as="geometry" />
        </mxCell>
        <mxCell id="GukLXgy1mVPKZHK0rCK0-312" style="edgeStyle=orthogonalEdgeStyle;rounded=0;orthogonalLoop=1;jettySize=auto;html=1;exitX=1;exitY=0.5;exitDx=0;exitDy=0;entryX=1;entryY=0.5;entryDx=0;entryDy=0;" parent="1" source="GukLXgy1mVPKZHK0rCK0-313" target="GukLXgy1mVPKZHK0rCK0-316" edge="1">
          <mxGeometry relative="1" as="geometry">
            <Array as="points">
              <mxPoint x="5457.5" y="-250" />
              <mxPoint x="5457.5" y="330" />
            </Array>
          </mxGeometry>
        </mxCell>
        <mxCell id="GukLXgy1mVPKZHK0rCK0-313" value="IR PARA TELA DE CADASTRO LOTE&amp;nbsp;" style="rounded=0;whiteSpace=wrap;html=1;fillColor=#fad7ac;strokeColor=#b46504;" parent="1" vertex="1">
          <mxGeometry x="5241.25" y="-280" width="122.5" height="60" as="geometry" />
        </mxCell>
        <mxCell id="GukLXgy1mVPKZHK0rCK0-314" style="edgeStyle=orthogonalEdgeStyle;rounded=0;orthogonalLoop=1;jettySize=auto;html=1;exitX=0.5;exitY=1;exitDx=0;exitDy=0;" parent="1" source="GukLXgy1mVPKZHK0rCK0-315" target="GukLXgy1mVPKZHK0rCK0-318" edge="1">
          <mxGeometry relative="1" as="geometry" />
        </mxCell>
        <mxCell id="GukLXgy1mVPKZHK0rCK0-315" value="&lt;font style=&quot;font-size: 10px;&quot;&gt;ESCREVER O MOTIVO DA EXCLUSÃO PARA DOCUMENTAÇÃO FUTURA&lt;/font&gt;" style="rounded=0;whiteSpace=wrap;html=1;fillColor=#fad7ac;strokeColor=#b46504;" parent="1" vertex="1">
          <mxGeometry x="4905" y="70" width="120" height="60" as="geometry" />
        </mxCell>
        <mxCell id="GukLXgy1mVPKZHK0rCK0-316" value="FIM" style="ellipse;whiteSpace=wrap;html=1;fillColor=#e1d5e7;strokeColor=#9673a6;" parent="1" vertex="1">
          <mxGeometry x="4905" y="290" width="120" height="80" as="geometry" />
        </mxCell>
        <mxCell id="GukLXgy1mVPKZHK0rCK0-317" style="edgeStyle=orthogonalEdgeStyle;rounded=0;orthogonalLoop=1;jettySize=auto;html=1;exitX=0.5;exitY=1;exitDx=0;exitDy=0;" parent="1" source="GukLXgy1mVPKZHK0rCK0-318" target="GukLXgy1mVPKZHK0rCK0-316" edge="1">
          <mxGeometry relative="1" as="geometry" />
        </mxCell>
        <mxCell id="GukLXgy1mVPKZHK0rCK0-318" value="CLICAR EM CONCLUIR" style="rounded=0;whiteSpace=wrap;html=1;fillColor=#fad7ac;strokeColor=#b46504;" parent="1" vertex="1">
          <mxGeometry x="4905" y="180" width="120" height="60" as="geometry" />
        </mxCell>
        <mxCell id="GukLXgy1mVPKZHK0rCK0-319" style="edgeStyle=orthogonalEdgeStyle;rounded=0;orthogonalLoop=1;jettySize=auto;html=1;exitX=0.5;exitY=1;exitDx=0;exitDy=0;entryX=0.5;entryY=0;entryDx=0;entryDy=0;" parent="1" target="GukLXgy1mVPKZHK0rCK0-321" edge="1">
          <mxGeometry relative="1" as="geometry">
            <mxPoint x="5595" y="-520" as="sourcePoint" />
          </mxGeometry>
        </mxCell>
        <mxCell id="GukLXgy1mVPKZHK0rCK0-320" style="edgeStyle=orthogonalEdgeStyle;rounded=0;orthogonalLoop=1;jettySize=auto;html=1;exitX=0.5;exitY=1;exitDx=0;exitDy=0;entryX=0.5;entryY=0;entryDx=0;entryDy=0;" parent="1" source="GukLXgy1mVPKZHK0rCK0-321" target="GukLXgy1mVPKZHK0rCK0-323" edge="1">
          <mxGeometry relative="1" as="geometry" />
        </mxCell>
        <mxCell id="GukLXgy1mVPKZHK0rCK0-321" value="ABRIR A TELA INICIAL&amp;nbsp;" style="rounded=0;whiteSpace=wrap;html=1;fillColor=#fad7ac;strokeColor=#b46504;" parent="1" vertex="1">
          <mxGeometry x="5535" y="-494" width="120" height="60" as="geometry" />
        </mxCell>
        <mxCell id="GukLXgy1mVPKZHK0rCK0-322" style="edgeStyle=orthogonalEdgeStyle;rounded=0;orthogonalLoop=1;jettySize=auto;html=1;exitX=0.5;exitY=1;exitDx=0;exitDy=0;" parent="1" source="GukLXgy1mVPKZHK0rCK0-323" target="GukLXgy1mVPKZHK0rCK0-325" edge="1">
          <mxGeometry relative="1" as="geometry" />
        </mxCell>
        <mxCell id="GukLXgy1mVPKZHK0rCK0-323" value="CLICAR NO ÍCONE EXCLUIR" style="rounded=0;whiteSpace=wrap;html=1;fillColor=#fad7ac;strokeColor=#b46504;" parent="1" vertex="1">
          <mxGeometry x="5535" y="-410" width="120" height="60" as="geometry" />
        </mxCell>
        <mxCell id="GukLXgy1mVPKZHK0rCK0-324" style="edgeStyle=orthogonalEdgeStyle;rounded=0;orthogonalLoop=1;jettySize=auto;html=1;exitX=0.5;exitY=1;exitDx=0;exitDy=0;" parent="1" source="GukLXgy1mVPKZHK0rCK0-325" target="GukLXgy1mVPKZHK0rCK0-327" edge="1">
          <mxGeometry relative="1" as="geometry" />
        </mxCell>
        <mxCell id="GukLXgy1mVPKZHK0rCK0-325" value="SELECIONAR LOTE" style="rounded=0;whiteSpace=wrap;html=1;fillColor=#fad7ac;strokeColor=#b46504;" parent="1" vertex="1">
          <mxGeometry x="5535" y="-320" width="120" height="60" as="geometry" />
        </mxCell>
        <mxCell id="GukLXgy1mVPKZHK0rCK0-326" style="edgeStyle=orthogonalEdgeStyle;rounded=0;orthogonalLoop=1;jettySize=auto;html=1;exitX=0.5;exitY=1;exitDx=0;exitDy=0;" parent="1" source="GukLXgy1mVPKZHK0rCK0-327" target="GukLXgy1mVPKZHK0rCK0-337" edge="1">
          <mxGeometry relative="1" as="geometry" />
        </mxCell>
        <mxCell id="GukLXgy1mVPKZHK0rCK0-327" value="VISUALIZAR LISTA DE LOTES" style="rounded=0;whiteSpace=wrap;html=1;fillColor=#fad7ac;strokeColor=#b46504;" parent="1" vertex="1">
          <mxGeometry x="5535" y="-220" width="120" height="60" as="geometry" />
        </mxCell>
        <mxCell id="GukLXgy1mVPKZHK0rCK0-328" value="INÍCIO" style="ellipse;whiteSpace=wrap;html=1;fillColor=#d0cee2;strokeColor=#56517e;" parent="1" vertex="1">
          <mxGeometry x="5535" y="-600" width="120" height="80" as="geometry" />
        </mxCell>
        <mxCell id="GukLXgy1mVPKZHK0rCK0-329" style="edgeStyle=orthogonalEdgeStyle;rounded=0;orthogonalLoop=1;jettySize=auto;html=1;exitX=0.5;exitY=1;exitDx=0;exitDy=0;" parent="1" source="GukLXgy1mVPKZHK0rCK0-330" target="GukLXgy1mVPKZHK0rCK0-348" edge="1">
          <mxGeometry relative="1" as="geometry" />
        </mxCell>
        <mxCell id="GukLXgy1mVPKZHK0rCK0-330" value="CLICAR PARA EDITAR LOTE" style="rounded=0;whiteSpace=wrap;html=1;fillColor=#fad7ac;strokeColor=#b46504;" parent="1" vertex="1">
          <mxGeometry x="5535" y="10" width="120" height="60" as="geometry" />
        </mxCell>
        <mxCell id="GukLXgy1mVPKZHK0rCK0-331" style="edgeStyle=orthogonalEdgeStyle;rounded=0;orthogonalLoop=1;jettySize=auto;html=1;exitX=1;exitY=0.5;exitDx=0;exitDy=0;" parent="1" source="GukLXgy1mVPKZHK0rCK0-332" target="GukLXgy1mVPKZHK0rCK0-342" edge="1">
          <mxGeometry relative="1" as="geometry" />
        </mxCell>
        <mxCell id="GukLXgy1mVPKZHK0rCK0-332" value="PESQUISAR LOTE QUE DESEJA" style="rounded=0;whiteSpace=wrap;html=1;fillColor=#fad7ac;strokeColor=#b46504;" parent="1" vertex="1">
          <mxGeometry x="5715" y="-105" width="120" height="60" as="geometry" />
        </mxCell>
        <mxCell id="GukLXgy1mVPKZHK0rCK0-333" style="edgeStyle=orthogonalEdgeStyle;rounded=0;orthogonalLoop=1;jettySize=auto;html=1;exitX=0.5;exitY=1;exitDx=0;exitDy=0;exitPerimeter=0;" parent="1" source="GukLXgy1mVPKZHK0rCK0-337" target="GukLXgy1mVPKZHK0rCK0-330" edge="1">
          <mxGeometry relative="1" as="geometry" />
        </mxCell>
        <mxCell id="GukLXgy1mVPKZHK0rCK0-334" value="SIM" style="edgeLabel;html=1;align=center;verticalAlign=middle;resizable=0;points=[];" parent="GukLXgy1mVPKZHK0rCK0-333" vertex="1" connectable="0">
          <mxGeometry x="-0.55" relative="1" as="geometry">
            <mxPoint as="offset" />
          </mxGeometry>
        </mxCell>
        <mxCell id="GukLXgy1mVPKZHK0rCK0-335" style="edgeStyle=orthogonalEdgeStyle;rounded=0;orthogonalLoop=1;jettySize=auto;html=1;exitX=1;exitY=0.5;exitDx=0;exitDy=0;exitPerimeter=0;" parent="1" source="GukLXgy1mVPKZHK0rCK0-337" target="GukLXgy1mVPKZHK0rCK0-332" edge="1">
          <mxGeometry relative="1" as="geometry" />
        </mxCell>
        <mxCell id="GukLXgy1mVPKZHK0rCK0-336" value="NÃO" style="edgeLabel;html=1;align=center;verticalAlign=middle;resizable=0;points=[];" parent="GukLXgy1mVPKZHK0rCK0-335" vertex="1" connectable="0">
          <mxGeometry x="-0.6" y="1" relative="1" as="geometry">
            <mxPoint as="offset" />
          </mxGeometry>
        </mxCell>
        <mxCell id="GukLXgy1mVPKZHK0rCK0-337" value="LOTE APARECEU&lt;div&gt;&amp;nbsp;NA TELA&amp;nbsp;&lt;/div&gt;" style="strokeWidth=2;html=1;shape=mxgraph.flowchart.decision;whiteSpace=wrap;fillColor=#b0e3e6;strokeColor=#0e8088;" parent="1" vertex="1">
          <mxGeometry x="5517.5" y="-120" width="155" height="90" as="geometry" />
        </mxCell>
        <mxCell id="GukLXgy1mVPKZHK0rCK0-338" value="" style="edgeStyle=orthogonalEdgeStyle;rounded=0;orthogonalLoop=1;jettySize=auto;html=1;" parent="1" source="GukLXgy1mVPKZHK0rCK0-342" target="GukLXgy1mVPKZHK0rCK0-343" edge="1">
          <mxGeometry relative="1" as="geometry" />
        </mxCell>
        <mxCell id="GukLXgy1mVPKZHK0rCK0-339" value="NÃO" style="edgeLabel;html=1;align=center;verticalAlign=middle;resizable=0;points=[];" parent="GukLXgy1mVPKZHK0rCK0-338" vertex="1" connectable="0">
          <mxGeometry x="-0.1022" y="4" relative="1" as="geometry">
            <mxPoint x="1" as="offset" />
          </mxGeometry>
        </mxCell>
        <mxCell id="GukLXgy1mVPKZHK0rCK0-340" style="edgeStyle=orthogonalEdgeStyle;rounded=0;orthogonalLoop=1;jettySize=auto;html=1;exitX=1;exitY=0.5;exitDx=0;exitDy=0;exitPerimeter=0;entryX=1;entryY=0.5;entryDx=0;entryDy=0;" parent="1" source="GukLXgy1mVPKZHK0rCK0-342" target="GukLXgy1mVPKZHK0rCK0-330" edge="1">
          <mxGeometry relative="1" as="geometry" />
        </mxCell>
        <mxCell id="GukLXgy1mVPKZHK0rCK0-341" value="SIM" style="edgeLabel;html=1;align=center;verticalAlign=middle;resizable=0;points=[];" parent="GukLXgy1mVPKZHK0rCK0-340" vertex="1" connectable="0">
          <mxGeometry x="-0.7438" y="-2" relative="1" as="geometry">
            <mxPoint as="offset" />
          </mxGeometry>
        </mxCell>
        <mxCell id="GukLXgy1mVPKZHK0rCK0-342" value="FOI ENCONTRADO&amp;nbsp;" style="strokeWidth=2;html=1;shape=mxgraph.flowchart.decision;whiteSpace=wrap;fillColor=#b0e3e6;strokeColor=#0e8088;" parent="1" vertex="1">
          <mxGeometry x="5857.5" y="-120" width="150" height="90" as="geometry" />
        </mxCell>
        <mxCell id="GukLXgy1mVPKZHK0rCK0-394" style="edgeStyle=orthogonalEdgeStyle;rounded=0;orthogonalLoop=1;jettySize=auto;html=1;exitX=1;exitY=0.5;exitDx=0;exitDy=0;entryX=1;entryY=0.5;entryDx=0;entryDy=0;" parent="1" source="GukLXgy1mVPKZHK0rCK0-343" target="GukLXgy1mVPKZHK0rCK0-346" edge="1">
          <mxGeometry relative="1" as="geometry">
            <Array as="points">
              <mxPoint x="6100" y="-190" />
              <mxPoint x="6100" y="430" />
            </Array>
          </mxGeometry>
        </mxCell>
        <mxCell id="GukLXgy1mVPKZHK0rCK0-343" value="IR PARA TELA DE CADASTRO LOTE" style="rounded=0;whiteSpace=wrap;html=1;fillColor=#fad7ac;strokeColor=#b46504;" parent="1" vertex="1">
          <mxGeometry x="5871.25" y="-220" width="122.5" height="60" as="geometry" />
        </mxCell>
        <mxCell id="GukLXgy1mVPKZHK0rCK0-344" style="edgeStyle=orthogonalEdgeStyle;rounded=0;orthogonalLoop=1;jettySize=auto;html=1;exitX=0.5;exitY=1;exitDx=0;exitDy=0;" parent="1" source="GukLXgy1mVPKZHK0rCK0-345" target="GukLXgy1mVPKZHK0rCK0-350" edge="1">
          <mxGeometry relative="1" as="geometry" />
        </mxCell>
        <mxCell id="GukLXgy1mVPKZHK0rCK0-345" value="&lt;font style=&quot;font-size: 10px;&quot;&gt;ESCREVER O MOTIVO DA EXCLUSÃO PARA DOCUMENTAÇÃO FUTURA&lt;/font&gt;" style="rounded=0;whiteSpace=wrap;html=1;fillColor=#fad7ac;strokeColor=#b46504;" parent="1" vertex="1">
          <mxGeometry x="5535" y="210" width="120" height="60" as="geometry" />
        </mxCell>
        <mxCell id="GukLXgy1mVPKZHK0rCK0-346" value="FIM" style="ellipse;whiteSpace=wrap;html=1;fillColor=#e1d5e7;strokeColor=#9673a6;" parent="1" vertex="1">
          <mxGeometry x="5535" y="390" width="120" height="80" as="geometry" />
        </mxCell>
        <mxCell id="GukLXgy1mVPKZHK0rCK0-347" style="edgeStyle=orthogonalEdgeStyle;rounded=0;orthogonalLoop=1;jettySize=auto;html=1;exitX=0.5;exitY=1;exitDx=0;exitDy=0;" parent="1" source="GukLXgy1mVPKZHK0rCK0-348" target="GukLXgy1mVPKZHK0rCK0-345" edge="1">
          <mxGeometry relative="1" as="geometry" />
        </mxCell>
        <mxCell id="GukLXgy1mVPKZHK0rCK0-348" value="CLICAR NA LIXEIRA&amp;nbsp;" style="rounded=0;whiteSpace=wrap;html=1;fillColor=#fad7ac;strokeColor=#b46504;" parent="1" vertex="1">
          <mxGeometry x="5535" y="110" width="120" height="60" as="geometry" />
        </mxCell>
        <mxCell id="GukLXgy1mVPKZHK0rCK0-349" style="edgeStyle=orthogonalEdgeStyle;rounded=0;orthogonalLoop=1;jettySize=auto;html=1;exitX=0.5;exitY=1;exitDx=0;exitDy=0;" parent="1" source="GukLXgy1mVPKZHK0rCK0-350" target="GukLXgy1mVPKZHK0rCK0-346" edge="1">
          <mxGeometry relative="1" as="geometry" />
        </mxCell>
        <mxCell id="GukLXgy1mVPKZHK0rCK0-350" value="CLICAR EM CONCLUIR" style="rounded=0;whiteSpace=wrap;html=1;fillColor=#fad7ac;strokeColor=#b46504;" parent="1" vertex="1">
          <mxGeometry x="5535" y="300" width="120" height="60" as="geometry" />
        </mxCell>
        <mxCell id="GukLXgy1mVPKZHK0rCK0-379" style="edgeStyle=orthogonalEdgeStyle;rounded=0;orthogonalLoop=1;jettySize=auto;html=1;exitX=1;exitY=0.5;exitDx=0;exitDy=0;exitPerimeter=0;entryX=0;entryY=0.5;entryDx=0;entryDy=0;" parent="1" source="GukLXgy1mVPKZHK0rCK0-376" target="GukLXgy1mVPKZHK0rCK0-249" edge="1">
          <mxGeometry relative="1" as="geometry" />
        </mxCell>
        <mxCell id="GukLXgy1mVPKZHK0rCK0-385" value="NÃO" style="edgeLabel;html=1;align=center;verticalAlign=middle;resizable=0;points=[];" parent="GukLXgy1mVPKZHK0rCK0-379" vertex="1" connectable="0">
          <mxGeometry x="-0.2718" y="3" relative="1" as="geometry">
            <mxPoint as="offset" />
          </mxGeometry>
        </mxCell>
        <mxCell id="GukLXgy1mVPKZHK0rCK0-380" style="edgeStyle=orthogonalEdgeStyle;rounded=0;orthogonalLoop=1;jettySize=auto;html=1;exitX=0.5;exitY=1;exitDx=0;exitDy=0;exitPerimeter=0;" parent="1" source="GukLXgy1mVPKZHK0rCK0-376" target="GukLXgy1mVPKZHK0rCK0-377" edge="1">
          <mxGeometry relative="1" as="geometry" />
        </mxCell>
        <mxCell id="GukLXgy1mVPKZHK0rCK0-387" value="SIM" style="edgeLabel;html=1;align=center;verticalAlign=middle;resizable=0;points=[];" parent="GukLXgy1mVPKZHK0rCK0-380" vertex="1" connectable="0">
          <mxGeometry x="-0.45" y="3" relative="1" as="geometry">
            <mxPoint as="offset" />
          </mxGeometry>
        </mxCell>
        <mxCell id="GukLXgy1mVPKZHK0rCK0-376" value="CLIENTE CADASTRADO" style="strokeWidth=2;html=1;shape=mxgraph.flowchart.decision;whiteSpace=wrap;fillColor=#b0e3e6;strokeColor=#0e8088;" parent="1" vertex="1">
          <mxGeometry x="3813.75" y="-240" width="167.5" height="90" as="geometry" />
        </mxCell>
        <mxCell id="GukLXgy1mVPKZHK0rCK0-377" value="EDITAR COM AS INFORMAÇÕES DO LOTE" style="rounded=0;whiteSpace=wrap;html=1;fillColor=#fad7ac;strokeColor=#b46504;" parent="1" vertex="1">
          <mxGeometry x="3837.5" y="-110" width="120" height="60" as="geometry" />
        </mxCell>
        <mxCell id="GukLXgy1mVPKZHK0rCK0-378" style="edgeStyle=orthogonalEdgeStyle;rounded=0;orthogonalLoop=1;jettySize=auto;html=1;exitX=0.5;exitY=1;exitDx=0;exitDy=0;entryX=0.5;entryY=0;entryDx=0;entryDy=0;entryPerimeter=0;" parent="1" source="GukLXgy1mVPKZHK0rCK0-257" target="GukLXgy1mVPKZHK0rCK0-376" edge="1">
          <mxGeometry relative="1" as="geometry" />
        </mxCell>
        <mxCell id="GukLXgy1mVPKZHK0rCK0-381" style="edgeStyle=orthogonalEdgeStyle;rounded=0;orthogonalLoop=1;jettySize=auto;html=1;exitX=0.5;exitY=1;exitDx=0;exitDy=0;entryX=0.5;entryY=0;entryDx=0;entryDy=0;entryPerimeter=0;" parent="1" source="GukLXgy1mVPKZHK0rCK0-377" target="GukLXgy1mVPKZHK0rCK0-247" edge="1">
          <mxGeometry relative="1" as="geometry" />
        </mxCell>
        <mxCell id="GukLXgy1mVPKZHK0rCK0-384" value="APARECER NA TELA PARA ENCAMINHAR PARA EDITAR / VISUALIZAR LOTE" style="rounded=0;whiteSpace=wrap;html=1;fillColor=#fad7ac;strokeColor=#b46504;" parent="1" vertex="1">
          <mxGeometry x="4030" y="2.5" width="130" height="65" as="geometry" />
        </mxCell>
        <mxCell id="GukLXgy1mVPKZHK0rCK0-406" style="edgeStyle=orthogonalEdgeStyle;rounded=0;orthogonalLoop=1;jettySize=auto;html=1;exitX=0.5;exitY=1;exitDx=0;exitDy=0;" parent="1" source="GukLXgy1mVPKZHK0rCK0-395" target="GukLXgy1mVPKZHK0rCK0-396" edge="1">
          <mxGeometry relative="1" as="geometry" />
        </mxCell>
        <mxCell id="GukLXgy1mVPKZHK0rCK0-395" value="INÍCIO" style="ellipse;whiteSpace=wrap;html=1;fillColor=#d0cee2;strokeColor=#56517e;" parent="1" vertex="1">
          <mxGeometry x="6390" y="-600" width="120" height="80" as="geometry" />
        </mxCell>
        <mxCell id="GukLXgy1mVPKZHK0rCK0-407" style="edgeStyle=orthogonalEdgeStyle;rounded=0;orthogonalLoop=1;jettySize=auto;html=1;exitX=0.5;exitY=1;exitDx=0;exitDy=0;entryX=0.5;entryY=0;entryDx=0;entryDy=0;" parent="1" source="GukLXgy1mVPKZHK0rCK0-396" target="GukLXgy1mVPKZHK0rCK0-397" edge="1">
          <mxGeometry relative="1" as="geometry" />
        </mxCell>
        <mxCell id="GukLXgy1mVPKZHK0rCK0-396" value="ABRIR A TELA INICIAL&amp;nbsp;" style="rounded=0;whiteSpace=wrap;html=1;fillColor=#fad7ac;strokeColor=#b46504;" parent="1" vertex="1">
          <mxGeometry x="6390" y="-480" width="120" height="60" as="geometry" />
        </mxCell>
        <mxCell id="GukLXgy1mVPKZHK0rCK0-408" style="edgeStyle=orthogonalEdgeStyle;rounded=0;orthogonalLoop=1;jettySize=auto;html=1;exitX=0.5;exitY=1;exitDx=0;exitDy=0;" parent="1" source="GukLXgy1mVPKZHK0rCK0-397" target="GukLXgy1mVPKZHK0rCK0-399" edge="1">
          <mxGeometry relative="1" as="geometry" />
        </mxCell>
        <mxCell id="GukLXgy1mVPKZHK0rCK0-397" value="CLICAR NO ÍCONE MÉDIA DIÁRIA" style="rounded=0;whiteSpace=wrap;html=1;fillColor=#fad7ac;strokeColor=#b46504;" parent="1" vertex="1">
          <mxGeometry x="6390" y="-390" width="120" height="60" as="geometry" />
        </mxCell>
        <mxCell id="GukLXgy1mVPKZHK0rCK0-409" style="edgeStyle=orthogonalEdgeStyle;rounded=0;orthogonalLoop=1;jettySize=auto;html=1;exitX=1;exitY=0.5;exitDx=0;exitDy=0;exitPerimeter=0;" parent="1" source="GukLXgy1mVPKZHK0rCK0-399" target="GukLXgy1mVPKZHK0rCK0-401" edge="1">
          <mxGeometry relative="1" as="geometry" />
        </mxCell>
        <mxCell id="GukLXgy1mVPKZHK0rCK0-410" style="edgeStyle=orthogonalEdgeStyle;rounded=0;orthogonalLoop=1;jettySize=auto;html=1;exitX=0.5;exitY=1;exitDx=0;exitDy=0;exitPerimeter=0;" parent="1" source="GukLXgy1mVPKZHK0rCK0-399" target="GukLXgy1mVPKZHK0rCK0-402" edge="1">
          <mxGeometry relative="1" as="geometry" />
        </mxCell>
        <mxCell id="GukLXgy1mVPKZHK0rCK0-399" value="&lt;font style=&quot;font-size: 11px;&quot;&gt;META DIÁRIA&lt;/font&gt;&lt;div style=&quot;font-size: 11px;&quot;&gt;&lt;font style=&quot;font-size: 11px;&quot;&gt;&amp;nbsp;APARECEU&amp;nbsp;&lt;/font&gt;&lt;/div&gt;&lt;div style=&quot;font-size: 11px;&quot;&gt;&lt;font style=&quot;font-size: 11px;&quot;&gt;NO FINAL&amp;nbsp;&lt;/font&gt;&lt;/div&gt;&lt;div style=&quot;font-size: 11px;&quot;&gt;&lt;font style=&quot;font-size: 11px;&quot;&gt;DA TELA&lt;/font&gt;&lt;/div&gt;" style="strokeWidth=2;html=1;shape=mxgraph.flowchart.decision;whiteSpace=wrap;fillColor=#b0e3e6;strokeColor=#0e8088;" parent="1" vertex="1">
          <mxGeometry x="6372.5" y="-295" width="155" height="90" as="geometry" />
        </mxCell>
        <mxCell id="GukLXgy1mVPKZHK0rCK0-401" value="APARECER OPÇÃO PARA COLOCAR META NO CAMPO CADASTRO DE LOTE" style="rounded=0;whiteSpace=wrap;html=1;fillColor=#fad7ac;strokeColor=#b46504;" parent="1" vertex="1">
          <mxGeometry x="6580" y="-280" width="130" height="60" as="geometry" />
        </mxCell>
        <mxCell id="GukLXgy1mVPKZHK0rCK0-411" style="edgeStyle=orthogonalEdgeStyle;rounded=0;orthogonalLoop=1;jettySize=auto;html=1;exitX=0.5;exitY=1;exitDx=0;exitDy=0;" parent="1" source="GukLXgy1mVPKZHK0rCK0-402" target="GukLXgy1mVPKZHK0rCK0-403" edge="1">
          <mxGeometry relative="1" as="geometry" />
        </mxCell>
        <mxCell id="GukLXgy1mVPKZHK0rCK0-402" value="EDITAR COM A QUANTIDADE DE PEÇAS FEITAS NO DIA" style="rounded=0;whiteSpace=wrap;html=1;fillColor=#fad7ac;strokeColor=#b46504;" parent="1" vertex="1">
          <mxGeometry x="6390" y="-160" width="120" height="60" as="geometry" />
        </mxCell>
        <mxCell id="GukLXgy1mVPKZHK0rCK0-412" style="edgeStyle=orthogonalEdgeStyle;rounded=0;orthogonalLoop=1;jettySize=auto;html=1;exitX=0.5;exitY=1;exitDx=0;exitDy=0;" parent="1" source="GukLXgy1mVPKZHK0rCK0-403" target="GukLXgy1mVPKZHK0rCK0-404" edge="1">
          <mxGeometry relative="1" as="geometry" />
        </mxCell>
        <mxCell id="GukLXgy1mVPKZHK0rCK0-403" value="EDITAR COM A EMPRESA&amp;nbsp;" style="rounded=0;whiteSpace=wrap;html=1;fillColor=#fad7ac;strokeColor=#b46504;" parent="1" vertex="1">
          <mxGeometry x="6390" y="-60" width="120" height="60" as="geometry" />
        </mxCell>
        <mxCell id="GukLXgy1mVPKZHK0rCK0-413" style="edgeStyle=orthogonalEdgeStyle;rounded=0;orthogonalLoop=1;jettySize=auto;html=1;exitX=1;exitY=0.5;exitDx=0;exitDy=0;exitPerimeter=0;" parent="1" source="GukLXgy1mVPKZHK0rCK0-404" edge="1">
          <mxGeometry relative="1" as="geometry">
            <mxPoint x="6590" y="85" as="targetPoint" />
          </mxGeometry>
        </mxCell>
        <mxCell id="GukLXgy1mVPKZHK0rCK0-419" value="NÃO" style="edgeLabel;html=1;align=center;verticalAlign=middle;resizable=0;points=[];" parent="GukLXgy1mVPKZHK0rCK0-413" vertex="1" connectable="0">
          <mxGeometry x="-0.0953" relative="1" as="geometry">
            <mxPoint x="1" as="offset" />
          </mxGeometry>
        </mxCell>
        <mxCell id="GukLXgy1mVPKZHK0rCK0-418" style="edgeStyle=orthogonalEdgeStyle;rounded=0;orthogonalLoop=1;jettySize=auto;html=1;exitX=0.5;exitY=1;exitDx=0;exitDy=0;exitPerimeter=0;" parent="1" source="GukLXgy1mVPKZHK0rCK0-404" target="GukLXgy1mVPKZHK0rCK0-414" edge="1">
          <mxGeometry relative="1" as="geometry" />
        </mxCell>
        <mxCell id="GukLXgy1mVPKZHK0rCK0-420" value="SIM" style="edgeLabel;html=1;align=center;verticalAlign=middle;resizable=0;points=[];" parent="GukLXgy1mVPKZHK0rCK0-418" vertex="1" connectable="0">
          <mxGeometry x="-0.28" y="1" relative="1" as="geometry">
            <mxPoint as="offset" />
          </mxGeometry>
        </mxCell>
        <mxCell id="GukLXgy1mVPKZHK0rCK0-404" value="&lt;span style=&quot;font-size: 11px;&quot;&gt;BATEU META&amp;nbsp;&lt;/span&gt;" style="strokeWidth=2;html=1;shape=mxgraph.flowchart.decision;whiteSpace=wrap;fillColor=#b0e3e6;strokeColor=#0e8088;" parent="1" vertex="1">
          <mxGeometry x="6372.5" y="40" width="155" height="90" as="geometry" />
        </mxCell>
        <mxCell id="GukLXgy1mVPKZHK0rCK0-426" style="edgeStyle=orthogonalEdgeStyle;rounded=0;orthogonalLoop=1;jettySize=auto;html=1;exitX=0.5;exitY=1;exitDx=0;exitDy=0;" parent="1" source="GukLXgy1mVPKZHK0rCK0-414" target="GukLXgy1mVPKZHK0rCK0-423" edge="1">
          <mxGeometry relative="1" as="geometry" />
        </mxCell>
        <mxCell id="GukLXgy1mVPKZHK0rCK0-414" value="APARECER NA TELA META BATIDA&amp;nbsp;" style="rounded=0;whiteSpace=wrap;html=1;fillColor=#fad7ac;strokeColor=#b46504;" parent="1" vertex="1">
          <mxGeometry x="6390" y="180" width="120" height="60" as="geometry" />
        </mxCell>
        <mxCell id="GukLXgy1mVPKZHK0rCK0-425" style="edgeStyle=orthogonalEdgeStyle;rounded=0;orthogonalLoop=1;jettySize=auto;html=1;exitX=0.5;exitY=1;exitDx=0;exitDy=0;entryX=1;entryY=0.5;entryDx=0;entryDy=0;" parent="1" source="GukLXgy1mVPKZHK0rCK0-415" target="GukLXgy1mVPKZHK0rCK0-424" edge="1">
          <mxGeometry relative="1" as="geometry" />
        </mxCell>
        <mxCell id="GukLXgy1mVPKZHK0rCK0-415" value="&lt;font style=&quot;font-size: 10px;&quot;&gt;DEIXAR NOTA NA TELA INICIAL QUE META NÃO FOI BATIDA NO DIA ANTERIOR&lt;/font&gt;" style="rounded=0;whiteSpace=wrap;html=1;fillColor=#fad7ac;strokeColor=#b46504;" parent="1" vertex="1">
          <mxGeometry x="6760" y="60" width="120" height="60" as="geometry" />
        </mxCell>
        <mxCell id="GukLXgy1mVPKZHK0rCK0-417" style="edgeStyle=orthogonalEdgeStyle;rounded=0;orthogonalLoop=1;jettySize=auto;html=1;exitX=1;exitY=0.5;exitDx=0;exitDy=0;" parent="1" source="GukLXgy1mVPKZHK0rCK0-416" target="GukLXgy1mVPKZHK0rCK0-415" edge="1">
          <mxGeometry relative="1" as="geometry" />
        </mxCell>
        <mxCell id="GukLXgy1mVPKZHK0rCK0-416" value="APARECER NA TELA META NÃO BATIDA&amp;nbsp;" style="rounded=0;whiteSpace=wrap;html=1;fillColor=#fad7ac;strokeColor=#b46504;" parent="1" vertex="1">
          <mxGeometry x="6590" y="60" width="120" height="60" as="geometry" />
        </mxCell>
        <mxCell id="GukLXgy1mVPKZHK0rCK0-421" value="FIM" style="ellipse;whiteSpace=wrap;html=1;fillColor=#e1d5e7;strokeColor=#9673a6;" parent="1" vertex="1">
          <mxGeometry x="6390" y="460" width="120" height="80" as="geometry" />
        </mxCell>
        <mxCell id="GukLXgy1mVPKZHK0rCK0-427" style="edgeStyle=orthogonalEdgeStyle;rounded=0;orthogonalLoop=1;jettySize=auto;html=1;exitX=0.5;exitY=1;exitDx=0;exitDy=0;" parent="1" source="GukLXgy1mVPKZHK0rCK0-423" target="GukLXgy1mVPKZHK0rCK0-424" edge="1">
          <mxGeometry relative="1" as="geometry" />
        </mxCell>
        <mxCell id="GukLXgy1mVPKZHK0rCK0-423" value="FECHAR FRAME&amp;nbsp;" style="rounded=0;whiteSpace=wrap;html=1;fillColor=#fad7ac;strokeColor=#b46504;" parent="1" vertex="1">
          <mxGeometry x="6390" y="270" width="120" height="60" as="geometry" />
        </mxCell>
        <mxCell id="GukLXgy1mVPKZHK0rCK0-428" style="edgeStyle=orthogonalEdgeStyle;rounded=0;orthogonalLoop=1;jettySize=auto;html=1;exitX=0.5;exitY=1;exitDx=0;exitDy=0;" parent="1" source="GukLXgy1mVPKZHK0rCK0-424" target="GukLXgy1mVPKZHK0rCK0-421" edge="1">
          <mxGeometry relative="1" as="geometry" />
        </mxCell>
        <mxCell id="GukLXgy1mVPKZHK0rCK0-424" value="SALVAR PROGRESSO&amp;nbsp;" style="rounded=0;whiteSpace=wrap;html=1;fillColor=#fad7ac;strokeColor=#b46504;" parent="1" vertex="1">
          <mxGeometry x="6390" y="360" width="120" height="60" as="geometry" />
        </mxCell>
        <mxCell id="GukLXgy1mVPKZHK0rCK0-429" value="INÍCIO&amp;nbsp;" style="ellipse;whiteSpace=wrap;html=1;fillColor=#e1d5e7;strokeColor=#9673a6;" parent="1" vertex="1">
          <mxGeometry x="7170" y="-570" width="120" height="80" as="geometry" />
        </mxCell>
        <mxCell id="GukLXgy1mVPKZHK0rCK0-430" style="edgeStyle=orthogonalEdgeStyle;rounded=0;orthogonalLoop=1;jettySize=auto;html=1;exitX=0.5;exitY=1;exitDx=0;exitDy=0;" parent="1" source="GukLXgy1mVPKZHK0rCK0-431" target="GukLXgy1mVPKZHK0rCK0-441" edge="1">
          <mxGeometry relative="1" as="geometry" />
        </mxCell>
        <mxCell id="GukLXgy1mVPKZHK0rCK0-431" value="ENTRADA DE PRODUTO&amp;nbsp;" style="rounded=0;whiteSpace=wrap;html=1;fillColor=#fad7ac;strokeColor=#b46504;" parent="1" vertex="1">
          <mxGeometry x="7170" y="-310" width="120" height="60" as="geometry" />
        </mxCell>
        <mxCell id="GukLXgy1mVPKZHK0rCK0-432" style="edgeStyle=orthogonalEdgeStyle;rounded=0;orthogonalLoop=1;jettySize=auto;html=1;exitX=1;exitY=0.5;exitDx=0;exitDy=0;exitPerimeter=0;" parent="1" source="GukLXgy1mVPKZHK0rCK0-436" target="GukLXgy1mVPKZHK0rCK0-444" edge="1">
          <mxGeometry relative="1" as="geometry" />
        </mxCell>
        <mxCell id="GukLXgy1mVPKZHK0rCK0-433" value="NÃO" style="edgeLabel;html=1;align=center;verticalAlign=middle;resizable=0;points=[];" parent="GukLXgy1mVPKZHK0rCK0-432" vertex="1" connectable="0">
          <mxGeometry x="-0.7125" y="3" relative="1" as="geometry">
            <mxPoint as="offset" />
          </mxGeometry>
        </mxCell>
        <mxCell id="GukLXgy1mVPKZHK0rCK0-434" style="edgeStyle=orthogonalEdgeStyle;rounded=0;orthogonalLoop=1;jettySize=auto;html=1;exitX=0.5;exitY=1;exitDx=0;exitDy=0;exitPerimeter=0;entryX=0.5;entryY=0;entryDx=0;entryDy=0;" parent="1" source="GukLXgy1mVPKZHK0rCK0-436" target="GukLXgy1mVPKZHK0rCK0-431" edge="1">
          <mxGeometry relative="1" as="geometry" />
        </mxCell>
        <mxCell id="GukLXgy1mVPKZHK0rCK0-435" value="SIM" style="edgeLabel;html=1;align=center;verticalAlign=middle;resizable=0;points=[];" parent="GukLXgy1mVPKZHK0rCK0-434" vertex="1" connectable="0">
          <mxGeometry x="-0.5333" y="1" relative="1" as="geometry">
            <mxPoint as="offset" />
          </mxGeometry>
        </mxCell>
        <mxCell id="GukLXgy1mVPKZHK0rCK0-436" value="ENTROU PRODUTO?" style="strokeWidth=2;html=1;shape=mxgraph.flowchart.decision;whiteSpace=wrap;fillColor=#b0e3e6;strokeColor=#0e8088;" parent="1" vertex="1">
          <mxGeometry x="7150" y="-470" width="160" height="100" as="geometry" />
        </mxCell>
        <mxCell id="GukLXgy1mVPKZHK0rCK0-437" style="edgeStyle=orthogonalEdgeStyle;rounded=0;orthogonalLoop=1;jettySize=auto;html=1;exitX=1;exitY=0.5;exitDx=0;exitDy=0;exitPerimeter=0;entryX=0.5;entryY=1;entryDx=0;entryDy=0;" parent="1" source="GukLXgy1mVPKZHK0rCK0-441" target="GukLXgy1mVPKZHK0rCK0-443" edge="1">
          <mxGeometry relative="1" as="geometry" />
        </mxCell>
        <mxCell id="GukLXgy1mVPKZHK0rCK0-438" value="NÃO" style="edgeLabel;html=1;align=center;verticalAlign=middle;resizable=0;points=[];" parent="GukLXgy1mVPKZHK0rCK0-437" vertex="1" connectable="0">
          <mxGeometry x="-0.4545" y="4" relative="1" as="geometry">
            <mxPoint as="offset" />
          </mxGeometry>
        </mxCell>
        <mxCell id="GukLXgy1mVPKZHK0rCK0-439" style="edgeStyle=orthogonalEdgeStyle;rounded=0;orthogonalLoop=1;jettySize=auto;html=1;exitX=0.5;exitY=1;exitDx=0;exitDy=0;exitPerimeter=0;entryX=0;entryY=0.5;entryDx=0;entryDy=0;" parent="1" source="GukLXgy1mVPKZHK0rCK0-441" target="GukLXgy1mVPKZHK0rCK0-446" edge="1">
          <mxGeometry relative="1" as="geometry" />
        </mxCell>
        <mxCell id="GukLXgy1mVPKZHK0rCK0-440" value="SIM" style="edgeLabel;html=1;align=center;verticalAlign=middle;resizable=0;points=[];" parent="GukLXgy1mVPKZHK0rCK0-439" vertex="1" connectable="0">
          <mxGeometry x="-0.8276" y="1" relative="1" as="geometry">
            <mxPoint as="offset" />
          </mxGeometry>
        </mxCell>
        <mxCell id="GukLXgy1mVPKZHK0rCK0-441" value="DADOS VÁLIDOS?&amp;nbsp;" style="strokeWidth=2;html=1;shape=mxgraph.flowchart.decision;whiteSpace=wrap;fillColor=#b0e3e6;strokeColor=#0e8088;" parent="1" vertex="1">
          <mxGeometry x="7150" y="-190" width="160" height="100" as="geometry" />
        </mxCell>
        <mxCell id="GukLXgy1mVPKZHK0rCK0-442" style="edgeStyle=orthogonalEdgeStyle;rounded=0;orthogonalLoop=1;jettySize=auto;html=1;exitX=0.5;exitY=0;exitDx=0;exitDy=0;" parent="1" source="GukLXgy1mVPKZHK0rCK0-443" target="GukLXgy1mVPKZHK0rCK0-431" edge="1">
          <mxGeometry relative="1" as="geometry" />
        </mxCell>
        <mxCell id="GukLXgy1mVPKZHK0rCK0-443" value="MOSTRAR ERRO" style="rounded=0;whiteSpace=wrap;html=1;fillColor=#fad7ac;strokeColor=#b46504;" parent="1" vertex="1">
          <mxGeometry x="7300" y="-260" width="120" height="60" as="geometry" />
        </mxCell>
        <mxCell id="GukLXgy1mVPKZHK0rCK0-444" value="SAÍDA DE PRODUTOS" style="rounded=0;whiteSpace=wrap;html=1;fillColor=#fad7ac;strokeColor=#b46504;" parent="1" vertex="1">
          <mxGeometry x="7470" y="-450" width="120" height="60" as="geometry" />
        </mxCell>
        <mxCell id="GukLXgy1mVPKZHK0rCK0-445" style="edgeStyle=orthogonalEdgeStyle;rounded=0;orthogonalLoop=1;jettySize=auto;html=1;exitX=0.5;exitY=1;exitDx=0;exitDy=0;" parent="1" source="GukLXgy1mVPKZHK0rCK0-446" target="GukLXgy1mVPKZHK0rCK0-448" edge="1">
          <mxGeometry relative="1" as="geometry" />
        </mxCell>
        <mxCell id="GukLXgy1mVPKZHK0rCK0-446" value="ALTERA ESTOQUE&amp;nbsp;" style="rounded=0;whiteSpace=wrap;html=1;fillColor=#fad7ac;strokeColor=#b46504;" parent="1" vertex="1">
          <mxGeometry x="7470" y="-100" width="120" height="60" as="geometry" />
        </mxCell>
        <mxCell id="GukLXgy1mVPKZHK0rCK0-447" style="edgeStyle=orthogonalEdgeStyle;rounded=0;orthogonalLoop=1;jettySize=auto;html=1;exitX=0.5;exitY=1;exitDx=0;exitDy=0;" parent="1" source="GukLXgy1mVPKZHK0rCK0-448" edge="1">
          <mxGeometry relative="1" as="geometry">
            <mxPoint x="7530" y="110" as="targetPoint" />
          </mxGeometry>
        </mxCell>
        <mxCell id="GukLXgy1mVPKZHK0rCK0-448" value="MOSTRAR SUCESSO" style="rounded=0;whiteSpace=wrap;html=1;fillColor=#fad7ac;strokeColor=#b46504;" parent="1" vertex="1">
          <mxGeometry x="7470" width="120" height="60" as="geometry" />
        </mxCell>
        <mxCell id="GukLXgy1mVPKZHK0rCK0-449" style="edgeStyle=orthogonalEdgeStyle;rounded=0;orthogonalLoop=1;jettySize=auto;html=1;exitX=0.5;exitY=0;exitDx=0;exitDy=0;entryX=1;entryY=0.5;entryDx=0;entryDy=0;" parent="1" source="GukLXgy1mVPKZHK0rCK0-450" target="GukLXgy1mVPKZHK0rCK0-444" edge="1">
          <mxGeometry relative="1" as="geometry" />
        </mxCell>
        <mxCell id="GukLXgy1mVPKZHK0rCK0-450" value="MOSTRAR ERRO" style="rounded=0;whiteSpace=wrap;html=1;fillColor=#fad7ac;strokeColor=#b46504;" parent="1" vertex="1">
          <mxGeometry x="7600" y="-400" width="120" height="60" as="geometry" />
        </mxCell>
        <mxCell id="GukLXgy1mVPKZHK0rCK0-451" style="edgeStyle=orthogonalEdgeStyle;rounded=0;orthogonalLoop=1;jettySize=auto;html=1;exitX=0.5;exitY=1;exitDx=0;exitDy=0;exitPerimeter=0;" parent="1" source="GukLXgy1mVPKZHK0rCK0-455" target="GukLXgy1mVPKZHK0rCK0-446" edge="1">
          <mxGeometry relative="1" as="geometry" />
        </mxCell>
        <mxCell id="GukLXgy1mVPKZHK0rCK0-452" value="SIM" style="edgeLabel;html=1;align=center;verticalAlign=middle;resizable=0;points=[];" parent="GukLXgy1mVPKZHK0rCK0-451" vertex="1" connectable="0">
          <mxGeometry x="-0.7333" y="2" relative="1" as="geometry">
            <mxPoint as="offset" />
          </mxGeometry>
        </mxCell>
        <mxCell id="GukLXgy1mVPKZHK0rCK0-453" style="edgeStyle=orthogonalEdgeStyle;rounded=0;orthogonalLoop=1;jettySize=auto;html=1;exitX=1;exitY=0.5;exitDx=0;exitDy=0;exitPerimeter=0;entryX=0.5;entryY=1;entryDx=0;entryDy=0;" parent="1" source="GukLXgy1mVPKZHK0rCK0-455" target="GukLXgy1mVPKZHK0rCK0-450" edge="1">
          <mxGeometry relative="1" as="geometry" />
        </mxCell>
        <mxCell id="GukLXgy1mVPKZHK0rCK0-454" value="NÃO" style="edgeLabel;html=1;align=center;verticalAlign=middle;resizable=0;points=[];" parent="GukLXgy1mVPKZHK0rCK0-453" vertex="1" connectable="0">
          <mxGeometry x="-0.4167" y="3" relative="1" as="geometry">
            <mxPoint as="offset" />
          </mxGeometry>
        </mxCell>
        <mxCell id="GukLXgy1mVPKZHK0rCK0-455" value="DADOS VÁLIDOS?&amp;nbsp;" style="strokeWidth=2;html=1;shape=mxgraph.flowchart.decision;whiteSpace=wrap;fillColor=#b0e3e6;strokeColor=#0e8088;" parent="1" vertex="1">
          <mxGeometry x="7450" y="-350" width="160" height="100" as="geometry" />
        </mxCell>
        <mxCell id="GukLXgy1mVPKZHK0rCK0-456" value="FIM" style="ellipse;whiteSpace=wrap;html=1;fillColor=#e1d5e7;strokeColor=#9673a6;" parent="1" vertex="1">
          <mxGeometry x="7470" y="110" width="120" height="80" as="geometry" />
        </mxCell>
        <mxCell id="GukLXgy1mVPKZHK0rCK0-457" style="edgeStyle=orthogonalEdgeStyle;rounded=0;orthogonalLoop=1;jettySize=auto;html=1;exitX=0.5;exitY=1;exitDx=0;exitDy=0;entryX=0.5;entryY=0;entryDx=0;entryDy=0;entryPerimeter=0;" parent="1" source="GukLXgy1mVPKZHK0rCK0-429" target="GukLXgy1mVPKZHK0rCK0-436" edge="1">
          <mxGeometry relative="1" as="geometry" />
        </mxCell>
        <mxCell id="GukLXgy1mVPKZHK0rCK0-458" style="edgeStyle=orthogonalEdgeStyle;rounded=0;orthogonalLoop=1;jettySize=auto;html=1;exitX=0.5;exitY=1;exitDx=0;exitDy=0;entryX=0.5;entryY=0;entryDx=0;entryDy=0;entryPerimeter=0;" parent="1" source="GukLXgy1mVPKZHK0rCK0-444" target="GukLXgy1mVPKZHK0rCK0-455" edge="1">
          <mxGeometry relative="1" as="geometry" />
        </mxCell>
        <mxCell id="GukLXgy1mVPKZHK0rCK0-477" style="edgeStyle=orthogonalEdgeStyle;rounded=0;orthogonalLoop=1;jettySize=auto;html=1;exitX=0.5;exitY=1;exitDx=0;exitDy=0;entryX=0.5;entryY=0;entryDx=0;entryDy=0;" parent="1" source="GukLXgy1mVPKZHK0rCK0-459" target="GukLXgy1mVPKZHK0rCK0-461" edge="1">
          <mxGeometry relative="1" as="geometry" />
        </mxCell>
        <mxCell id="GukLXgy1mVPKZHK0rCK0-459" value="INÍCIO&amp;nbsp;" style="ellipse;whiteSpace=wrap;html=1;fillColor=#e1d5e7;strokeColor=#9673a6;" parent="1" vertex="1">
          <mxGeometry x="8020" y="-564" width="120" height="80" as="geometry" />
        </mxCell>
        <mxCell id="GukLXgy1mVPKZHK0rCK0-478" style="edgeStyle=orthogonalEdgeStyle;rounded=0;orthogonalLoop=1;jettySize=auto;html=1;exitX=0.5;exitY=1;exitDx=0;exitDy=0;" parent="1" source="GukLXgy1mVPKZHK0rCK0-461" target="GukLXgy1mVPKZHK0rCK0-462" edge="1">
          <mxGeometry relative="1" as="geometry" />
        </mxCell>
        <mxCell id="GukLXgy1mVPKZHK0rCK0-461" value="ABRIR A TELA INICIAL&amp;nbsp;" style="rounded=0;whiteSpace=wrap;html=1;fillColor=#fad7ac;strokeColor=#b46504;" parent="1" vertex="1">
          <mxGeometry x="8020" y="-450" width="120" height="60" as="geometry" />
        </mxCell>
        <mxCell id="GukLXgy1mVPKZHK0rCK0-479" style="edgeStyle=orthogonalEdgeStyle;rounded=0;orthogonalLoop=1;jettySize=auto;html=1;exitX=0.5;exitY=1;exitDx=0;exitDy=0;entryX=0.5;entryY=0;entryDx=0;entryDy=0;" parent="1" source="GukLXgy1mVPKZHK0rCK0-462" target="GukLXgy1mVPKZHK0rCK0-463" edge="1">
          <mxGeometry relative="1" as="geometry" />
        </mxCell>
        <mxCell id="GukLXgy1mVPKZHK0rCK0-462" value="CLICAR NO ÍCONE LEITURA" style="rounded=0;whiteSpace=wrap;html=1;fillColor=#fad7ac;strokeColor=#b46504;" parent="1" vertex="1">
          <mxGeometry x="8020" y="-360" width="120" height="60" as="geometry" />
        </mxCell>
        <mxCell id="GukLXgy1mVPKZHK0rCK0-480" style="edgeStyle=orthogonalEdgeStyle;rounded=0;orthogonalLoop=1;jettySize=auto;html=1;exitX=0.5;exitY=1;exitDx=0;exitDy=0;" parent="1" source="GukLXgy1mVPKZHK0rCK0-463" target="GukLXgy1mVPKZHK0rCK0-465" edge="1">
          <mxGeometry relative="1" as="geometry" />
        </mxCell>
        <mxCell id="GukLXgy1mVPKZHK0rCK0-463" value="SELECIONAR LOTE" style="rounded=0;whiteSpace=wrap;html=1;fillColor=#fad7ac;strokeColor=#b46504;" parent="1" vertex="1">
          <mxGeometry x="8020" y="-280" width="120" height="60" as="geometry" />
        </mxCell>
        <mxCell id="GukLXgy1mVPKZHK0rCK0-483" style="edgeStyle=orthogonalEdgeStyle;rounded=0;orthogonalLoop=1;jettySize=auto;html=1;exitX=0.5;exitY=1;exitDx=0;exitDy=0;" parent="1" source="GukLXgy1mVPKZHK0rCK0-464" target="GukLXgy1mVPKZHK0rCK0-474" edge="1">
          <mxGeometry relative="1" as="geometry" />
        </mxCell>
        <mxCell id="GukLXgy1mVPKZHK0rCK0-464" value="DAR UM CHECK NO LOTE QUE DESEJA&amp;nbsp;" style="rounded=0;whiteSpace=wrap;html=1;fillColor=#fad7ac;strokeColor=#b46504;" parent="1" vertex="1">
          <mxGeometry x="8020" y="-65" width="120" height="60" as="geometry" />
        </mxCell>
        <mxCell id="GukLXgy1mVPKZHK0rCK0-481" style="edgeStyle=orthogonalEdgeStyle;rounded=0;orthogonalLoop=1;jettySize=auto;html=1;exitX=1;exitY=0.5;exitDx=0;exitDy=0;exitPerimeter=0;" parent="1" source="GukLXgy1mVPKZHK0rCK0-465" target="GukLXgy1mVPKZHK0rCK0-468" edge="1">
          <mxGeometry relative="1" as="geometry" />
        </mxCell>
        <mxCell id="GukLXgy1mVPKZHK0rCK0-488" value="NÃO" style="edgeLabel;html=1;align=center;verticalAlign=middle;resizable=0;points=[];" parent="GukLXgy1mVPKZHK0rCK0-481" vertex="1" connectable="0">
          <mxGeometry x="-0.344" y="2" relative="1" as="geometry">
            <mxPoint as="offset" />
          </mxGeometry>
        </mxCell>
        <mxCell id="GukLXgy1mVPKZHK0rCK0-482" style="edgeStyle=orthogonalEdgeStyle;rounded=0;orthogonalLoop=1;jettySize=auto;html=1;exitX=0.5;exitY=1;exitDx=0;exitDy=0;exitPerimeter=0;entryX=0.5;entryY=0;entryDx=0;entryDy=0;" parent="1" source="GukLXgy1mVPKZHK0rCK0-465" target="GukLXgy1mVPKZHK0rCK0-464" edge="1">
          <mxGeometry relative="1" as="geometry" />
        </mxCell>
        <mxCell id="GukLXgy1mVPKZHK0rCK0-489" value="SIM" style="edgeLabel;html=1;align=center;verticalAlign=middle;resizable=0;points=[];" parent="GukLXgy1mVPKZHK0rCK0-482" vertex="1" connectable="0">
          <mxGeometry x="-0.2571" y="1" relative="1" as="geometry">
            <mxPoint as="offset" />
          </mxGeometry>
        </mxCell>
        <mxCell id="GukLXgy1mVPKZHK0rCK0-465" value="LOTE APARECEU&lt;div&gt;&amp;nbsp;NA TELA&amp;nbsp;&lt;/div&gt;" style="strokeWidth=2;html=1;shape=mxgraph.flowchart.decision;whiteSpace=wrap;fillColor=#b0e3e6;strokeColor=#0e8088;" parent="1" vertex="1">
          <mxGeometry x="8002.5" y="-190" width="155" height="90" as="geometry" />
        </mxCell>
        <mxCell id="GukLXgy1mVPKZHK0rCK0-467" style="edgeStyle=orthogonalEdgeStyle;rounded=0;orthogonalLoop=1;jettySize=auto;html=1;exitX=1;exitY=0.5;exitDx=0;exitDy=0;" parent="1" source="GukLXgy1mVPKZHK0rCK0-468" target="GukLXgy1mVPKZHK0rCK0-472" edge="1">
          <mxGeometry relative="1" as="geometry" />
        </mxCell>
        <mxCell id="GukLXgy1mVPKZHK0rCK0-468" value="PESQUISAR LOTE QUE DESEJA" style="rounded=0;whiteSpace=wrap;html=1;fillColor=#fad7ac;strokeColor=#b46504;" parent="1" vertex="1">
          <mxGeometry x="8220" y="-175" width="120" height="60" as="geometry" />
        </mxCell>
        <mxCell id="GukLXgy1mVPKZHK0rCK0-469" value="" style="edgeStyle=orthogonalEdgeStyle;rounded=0;orthogonalLoop=1;jettySize=auto;html=1;" parent="1" source="GukLXgy1mVPKZHK0rCK0-472" target="GukLXgy1mVPKZHK0rCK0-473" edge="1">
          <mxGeometry relative="1" as="geometry" />
        </mxCell>
        <mxCell id="GukLXgy1mVPKZHK0rCK0-470" value="NÃO" style="edgeLabel;html=1;align=center;verticalAlign=middle;resizable=0;points=[];" parent="GukLXgy1mVPKZHK0rCK0-469" vertex="1" connectable="0">
          <mxGeometry x="-0.1022" y="4" relative="1" as="geometry">
            <mxPoint x="1" as="offset" />
          </mxGeometry>
        </mxCell>
        <mxCell id="GukLXgy1mVPKZHK0rCK0-486" style="edgeStyle=orthogonalEdgeStyle;rounded=0;orthogonalLoop=1;jettySize=auto;html=1;exitX=0.5;exitY=1;exitDx=0;exitDy=0;exitPerimeter=0;entryX=1;entryY=0.5;entryDx=0;entryDy=0;" parent="1" source="GukLXgy1mVPKZHK0rCK0-472" target="GukLXgy1mVPKZHK0rCK0-464" edge="1">
          <mxGeometry relative="1" as="geometry" />
        </mxCell>
        <mxCell id="GukLXgy1mVPKZHK0rCK0-487" value="SIM" style="edgeLabel;html=1;align=center;verticalAlign=middle;resizable=0;points=[];" parent="GukLXgy1mVPKZHK0rCK0-486" vertex="1" connectable="0">
          <mxGeometry x="-0.1463" y="-3" relative="1" as="geometry">
            <mxPoint as="offset" />
          </mxGeometry>
        </mxCell>
        <mxCell id="GukLXgy1mVPKZHK0rCK0-472" value="FOI ENCONTRADO&amp;nbsp;" style="strokeWidth=2;html=1;shape=mxgraph.flowchart.decision;whiteSpace=wrap;fillColor=#b0e3e6;strokeColor=#0e8088;" parent="1" vertex="1">
          <mxGeometry x="8410" y="-190" width="150" height="90" as="geometry" />
        </mxCell>
        <mxCell id="GukLXgy1mVPKZHK0rCK0-473" value="IR PARA TELA DE CADASTRO LOTE" style="rounded=0;whiteSpace=wrap;html=1;fillColor=#fad7ac;strokeColor=#b46504;" parent="1" vertex="1">
          <mxGeometry x="8423.75" y="-295" width="122.5" height="60" as="geometry" />
        </mxCell>
        <mxCell id="GukLXgy1mVPKZHK0rCK0-484" style="edgeStyle=orthogonalEdgeStyle;rounded=0;orthogonalLoop=1;jettySize=auto;html=1;exitX=0.5;exitY=1;exitDx=0;exitDy=0;entryX=0.5;entryY=0;entryDx=0;entryDy=0;" parent="1" source="GukLXgy1mVPKZHK0rCK0-474" target="GukLXgy1mVPKZHK0rCK0-475" edge="1">
          <mxGeometry relative="1" as="geometry" />
        </mxCell>
        <mxCell id="GukLXgy1mVPKZHK0rCK0-474" value="APARECER NA TELA ESPAÇO PARA ESCREVER MOTIVO DO CHECK&amp;nbsp;" style="rounded=0;whiteSpace=wrap;html=1;fillColor=#fad7ac;strokeColor=#b46504;" parent="1" vertex="1">
          <mxGeometry x="8020" y="20" width="120" height="60" as="geometry" />
        </mxCell>
        <mxCell id="GukLXgy1mVPKZHK0rCK0-485" style="edgeStyle=orthogonalEdgeStyle;rounded=0;orthogonalLoop=1;jettySize=auto;html=1;exitX=0.5;exitY=1;exitDx=0;exitDy=0;" parent="1" source="GukLXgy1mVPKZHK0rCK0-475" target="GukLXgy1mVPKZHK0rCK0-476" edge="1">
          <mxGeometry relative="1" as="geometry" />
        </mxCell>
        <mxCell id="GukLXgy1mVPKZHK0rCK0-475" value="CONCLUIR" style="rounded=0;whiteSpace=wrap;html=1;fillColor=#fad7ac;strokeColor=#b46504;" parent="1" vertex="1">
          <mxGeometry x="8020" y="110" width="120" height="60" as="geometry" />
        </mxCell>
        <mxCell id="GukLXgy1mVPKZHK0rCK0-476" value="FIM&amp;nbsp;" style="ellipse;whiteSpace=wrap;html=1;fillColor=#e1d5e7;strokeColor=#9673a6;" parent="1" vertex="1">
          <mxGeometry x="8020" y="220" width="120" height="80" as="geometry" />
        </mxCell>
      </root>
    </mxGraphModel>
  </diagram>
</mxfile>
